<svg xmlns="http://www.w3.org/2000/svg" style="display:none">

  <!-- Teléfono -->
  <symbol id="icon-phone" viewBox="0 0 24 24">
    <path d="M6.6 10.8c1.2 2.4 3 4.2 5.4 5.4l1.8-1.8c.3-.3.9-.3 1.2 0l3.6 1.2c.3.3.6.6.6.9v3.6c0 .3-.3.6-.6.6C10.2 21.6 2.4 13.8 2.4 4.2c0-.3.3-.6.6-.6h3.6c.3 0 .6.3.9.6l1.2 3.6c0 .3 0 .9-.3 1.2l-1.8 1.8z"/>
  </symbol>

  <!-- WhatsApp -->
  <symbol id="icon-whatsapp" viewBox="0 0 32 32">
    <path d="M16.027 3C9.383 3 4 8.383 4 15.027c0 2.64.767 5.2 2.219 7.392L4 29l6.781-2.219A12.98 12.98 0 0 0 16.027 27c6.644 0 12.027-5.383 12.027-12.027C28.054 8.383 22.67 3 16.027 3zm0 22.635c-2.303 0-4.54-.68-6.457-1.963l-.464-.305-4.037 1.322 1.318-3.928-.303-.465A10.377 10.377 0 0 1 5.65 15.03c0-5.73 4.647-10.377 10.377-10.377 5.73 0 10.377 4.647 10.377 10.377 0 5.73-4.647 10.377-10.377 10.377zm5.71-7.796c-.312-.156-1.84-.906-2.125-1.01-.285-.104-.492-.156-.698.156-.207.312-.802 1.01-.983 1.216-.18.207-.362.234-.674.078-.312-.156-1.319-.486-2.51-1.55-.928-.828-1.555-1.85-1.738-2.162-.18-.312-.02-.48.136-.636.14-.14.312-.363.468-.545.156-.181.207-.312.312-.52.104-.207.052-.39-.026-.545-.078-.156-.698-1.682-.957-2.3-.252-.604-.508-.52-.698-.53h-.598c-.207 0-.545.078-.831.39-.285.312-1.09 1.064-1.09 2.596 0 1.531 1.117 3.012 1.272 3.219.156.207 2.197 3.355 5.326 4.695.745.321 1.327.514 1.793.658.754.239 1.44.206 1.975.125.602-.089 1.84-.753 2.093-1.48.258-.727.258-1.342.181-1.48-.078-.139-.285-.225-.597-.381z"/>
  </symbol>

  <!-- Correo -->
  <symbol id="icon-mail" viewBox="0 0 24 24">
    <path d="M20 4H4c-1.11 0-1.99.9-1.99 2L2 18c0 1.1.88 2 1.99 2H20c1.1 0 2-.9 2-2V6c0-1.1-.9-2-2-2zm0 4-8 5-8-5V6l8 5 8-5v2z"/>
  </symbol>

  <!-- Facebook -->
  <symbol id="icon-facebook" viewBox="0 0 24 24">
    <path d="M22.675 0h-21.35C.597 0 0 .598 0 1.333v21.333C0 23.403.597 24 1.325 24h11.495v-9.294H9.692v-3.622h3.128V8.413c0-3.1 1.894-4.788 4.659-4.788 1.325 0 2.463.099 2.794.143v3.24l-1.918.001c-1.504 0-1.795.716-1.795 1.763v2.31h3.587l-.467 3.622h-3.12V24h6.116C23.403 24 24 23.403 24 22.667V1.333C24 .598 23.403 0 22.675 0"/>
  </symbol>

  <!-- Instagram -->
  <symbol id="icon-instagram" viewBox="0 0 24 24">
    <path d="M12 2.163c3.204 0 3.584.012 4.85.07 1.366.062 2.633.348 3.608 1.322.975.975 1.26 2.242 1.322 3.608.058 1.266.07 1.646.07 4.85s-.012 3.584-.07 4.85c-.062 1.366-.347 2.633-1.322 3.608-.975.975-2.242 1.26-3.608 1.322-1.266.058-1.646.07-4.85.07s-3.584-.012-4.85-.07c-1.366-.062-2.633-.347-3.608-1.322-.975-.975-1.26-2.242-1.322-3.608C2.175 15.647 2.163 15.267 2.163 12s.012-3.584.07-4.85c.062-1.366.347-2.633 1.322-3.608C4.53 2.581 5.797 2.296 7.163 2.234 8.429 2.176 8.809 2.163 12 2.163zm0-2.163C8.741 0 8.332.014 7.052.072 5.775.131 4.602.417 3.635 1.384c-.967.967-1.253 2.14-1.312 3.417C2.014 5.081 2 5.49 2 8.75v6.5c0 3.26.014 3.669.072 4.949.059 1.277.345 2.45 1.312 3.417.967.967 2.14 1.253 3.417 1.312C8.332 24 8.741 24 12 24c3.259 0 3.668-.014 4.948-.072 1.277-.059 2.45-.345 3.417-1.312.967-.967 1.253-2.14 1.312-3.417.058-1.28.072-1.689.072-4.949v-6.5c0-3.26-.014-3.669-.072-4.949-.059-1.277-.345-2.45-1.312-3.417C19.398.417 18.225.131 16.948.072 15.668.014 15.259 0 12 0z"/>
    <circle cx="12" cy="12" r="3.2"/>
  </symbol>

  <!-- Menú (hamburguesa) -->
  <symbol id="icon-menu" viewBox="0 0 24 24">
    <path d="M3 6.75A.75.75 0 0 1 3.75 6h16.5a.75.75 0 0 1 0 1.5H3.75A.75.75 0 0 1 3 6.75Zm0 5.25a.75.75 0 0 1 .75-.75h16.5a.75.75 0 0 1 0 1.5H3.75A.75.75 0 0 1 3 12Zm.75 4.5a.75.75 0 0 0 0 1.5h16.5a.75.75 0 0 0 0-1.5H3.75Z"/>
  </symbol>

  <!-- Cerrar (X) -->
  <symbol id="icon-x" viewBox="0 0 24 24">
    <path d="M6.225 4.811a1 1 0 0 1 1.414 0L12 9.172l4.361-4.361a1 1 0 1 1 1.414 1.414L13.414 10.586l4.361 4.361a1 1 0 1 1-1.414 1.414L12 12l-4.361 4.361a1 1 0 0 1-1.414-1.414l4.361-4.361-4.361-4.361a1 1 0 0 1 0-1.414Z"/>
  </symbol>

  <!-- Logo FOUCES -->
  <symbol id="logo-fouces" viewBox="0 0 2000 1414">
    <path d="M0 0 C660 0 1320 0 2000 0 C2000 466.62 2000 933.24 2000 1414 C1340 1414 680 1414 0 1414 C0 947.38 0 480.76 0 0 Z " fill="#FEFEFE" transform="translate(0,0)"/>
    <path d="M0 0 C49.5 0 99 0 150 0 C150 3.3 150 6.6 150 10 C137.46 10 124.92 10 112 10 C112.05990742 45.21080633 112.1337722 80.42154279 112.22898628 115.63227179 C112.24025242 119.80343155 112.2513912 123.97459164 112.26245117 128.14575195 C112.26465486 128.97604171 112.26685854 129.80633146 112.269129 130.66178151 C112.30435661 144.04864095 112.32930237 157.43550035 112.35034702 170.82238875 C112.37222563 184.59175688 112.40538846 198.36106567 112.44870156 212.13038319 C112.47501236 220.6045934 112.49285843 229.07872989 112.49934604 237.55297884 C112.50466374 243.38970131 112.52108935 249.22633157 112.54566566 255.06300435 C112.55946655 258.41419949 112.56726736 261.76509376 112.56500816 265.11633682 C112.54815829 301.69155626 113.70683251 344.44477929 140.9609375 372.23046875 C147.45170575 378.42503976 155.63537413 382.8812815 164 386 C164.74113037 386.27739014 165.48226074 386.55478027 166.24584961 386.84057617 C174.38757555 389.47280483 182.40246511 389.45737009 190.86889648 389.39111328 C193.29794064 389.37509601 195.72530452 389.39099745 198.15429688 389.41015625 C223.76177972 389.44535935 243.1248654 379.09114042 264.89453125 366.75878906 C268.91642825 364.48097884 272.94514339 362.21859764 277 360 C278.11375 359.38125 279.2275 358.7625 280.375 358.125 C283 357 283 357 286 358 C271.25143072 377.17314007 254.71438144 391.11875983 231 398 C229.68322266 398.39058594 229.68322266 398.39058594 228.33984375 398.7890625 C212.52016773 403.09758499 196.64801734 404.53212719 180.3125 404.375 C179.4425943 404.37034729 178.5726886 404.36569458 177.67642212 404.36090088 C163.60529544 404.27306593 149.86079916 403.58267043 136 401 C134.92540527 400.80664062 133.85081055 400.61328125 132.74365234 400.4140625 C101.53320552 394.6381466 71.7856652 382.62136476 51.890625 356.7578125 C46.92742855 349.51810859 43.77791671 341.91814743 41.25 333.5625 C41.05116211 332.90749512 40.85232422 332.25249023 40.64746094 331.57763672 C37.61263211 320.85683061 36.7026307 310.07098322 36.75949097 298.97160339 C36.75778212 297.72726306 36.75607327 296.48292272 36.75431263 295.2008751 C36.75161054 291.78688358 36.75777422 288.37312689 36.76786876 284.95916402 C36.77657255 281.26269849 36.77357824 277.56623915 36.77206421 273.86976624 C36.77101971 267.4786072 36.77725062 261.08748926 36.78853989 254.69634056 C36.8048512 245.4560211 36.81000863 236.21572134 36.81251587 226.97538904 C36.81688417 211.98057039 36.83016972 196.98577359 36.84912109 181.9909668 C36.86750234 167.43204863 36.88164784 152.87313642 36.89013672 138.31420898 C36.89092489 136.9662231 36.89092489 136.9662231 36.89172898 135.59100517 C36.89433921 131.08233393 36.89686659 126.57366266 36.89935279 122.06499135 C36.92005833 84.70997818 36.95581384 47.35499223 37 10 C24.79 10 12.58 10 0 10 C0 6.7 0 3.4 0 0 Z " fill="#01626C" transform="translate(689,430)"/>
    <path d="M0 0 C-2.95716245 1.59663633 -5.79767621 2.58662426 -9.04296875 3.4453125 C-37.68192214 11.24868216 -57.73069445 21.69948958 -72.75 47.875 C-78.88795161 58.97252291 -83.25110352 70.56199167 -86.4375 82.84082031 C-86.84691792 84.41238806 -87.26471583 85.98177989 -87.6875 87.54980469 C-97.34581369 123.42893094 -100.59268955 159.62094808 -100.44683075 196.64757919 C-100.43736679 199.16036963 -100.43251581 201.67313936 -100.42828369 204.1859436 C-100.35123979 238.08722388 -100.05221707 272.31064946 -90 305 C-89.73848145 305.8765625 -89.47696289 306.753125 -89.20751953 307.65625 C-81.73952563 332.24163592 -68.70862991 358.60877134 -45.3269043 371.35522461 C-27.75435315 380.47406983 -9.50960442 383.51359252 10 385 C10.74137207 385.05784668 11.48274414 385.11569336 12.24658203 385.17529297 C16.16275726 385.47750296 20.07994505 385.75337403 24 386 C24 386.66 24 387.32 24 388 C-3.31989619 404.4280433 -33.74712416 406.86681135 -64.5 399.25 C-89.48833415 392.16258927 -109.87551675 378.61433415 -128 360 C-128.51095215 359.51168701 -129.0219043 359.02337402 -129.54833984 358.52026367 C-133.90113002 354.31963019 -137.50238914 349.90805781 -140.9375 344.9375 C-141.45546143 344.19290527 -141.97342285 343.44831055 -142.50708008 342.68115234 C-164.44580918 310.74981796 -175.40241894 275.20489915 -180 237 C-180.103125 236.17435547 -180.20625 235.34871094 -180.3125 234.49804688 C-184.52386837 195.71073384 -180.25221759 156.2308685 -169 119 C-168.74025391 118.12456543 -168.48050781 117.24913086 -168.21289062 116.34716797 C-161.46530196 94.07925806 -150.84893786 72.68565337 -137 54 C-136.29359375 53.04480469 -135.5871875 52.08960938 -134.859375 51.10546875 C-112.76810658 22.59336419 -82.88272866 1.2910847 -46.74243164 -4.35253906 C-31.10954679 -6.2720351 -14.68292859 -6.20785584 0 0 Z " fill="#01616B" transform="translate(1253,429)"/>
    <path d="M0 0 C33.33 0 66.66 0 101 0 C101 130.35 101 260.7 101 395 C67.67 395 34.34 395 0 395 C0 392.03 0 389.06 0 386 C9.57 386 19.14 386 29 386 C29 261.92 29 137.84 29 10 C19.43 10 9.86 10 0 10 C0 6.7 0 3.4 0 0 Z " fill="#01616B" transform="translate(1390,430)"/>
    <path d="M0 0 C32.34 0 64.68 0 98 0 C98 127.38 98 254.76 98 386 C109.55 386 121.1 386 133 386 C133 389.3 133 392.6 133 396 C89.11 396 45.22 396 0 396 C0 392.7 0 389.4 0 386 C9.9 386 19.8 386 30 386 C30 261.92 30 137.84 30 10 C20.1 10 10.2 10 0 10 C0 6.7 0 3.4 0 0 Z " fill="#00616B" transform="translate(40,430)"/>
    <path d="M0 0 C0 3.740888 -0.85496184 4.33078881 -3.25 7.125 C-20.59048444 28.21644029 -33.1360533 47.83170402 -32 76 C-30.15014488 93.95998578 -22.0418672 109.64115244 -8.2578125 121.32421875 C11.87799051 137.04191818 36.78155358 145.7987951 60.22848511 155.2444458 C86.30290913 165.78155715 110.72599275 178.18873757 131 198 C131.87269531 198.81082031 132.74539063 199.62164063 133.64453125 200.45703125 C140.16879642 206.66059521 145.1817495 213.45799969 150 221 C150.94359375 222.45212891 150.94359375 222.45212891 151.90625 223.93359375 C167.39781074 248.97148907 173.05743192 284.02262089 166.4375 312.75 C165.72532863 315.53712768 164.89450358 318.26640721 164 321 C163.75330566 321.77730469 163.50661133 322.55460937 163.25244141 323.35546875 C153.8335568 352.45051316 136.49353108 374.42508136 109.33398438 388.47387695 C97.56054337 394.38591432 97.56054337 394.38591432 91 394 C94.51752408 389.72193017 98.1877615 385.83356026 102.1875 382 C116.06511652 368.36977328 128.00568304 351.09585504 128.28320312 331.2109375 C128.29287109 330.11007812 128.30253906 329.00921875 128.3125 327.875 C128.34150391 326.79734375 128.37050781 325.7196875 128.40039062 324.609375 C128.49025554 313.13431673 125.0336068 304.01611851 118 295 C117.5565625 294.41863281 117.113125 293.83726562 116.65625 293.23828125 C110.6472495 286.38226738 101.87090247 282.33665801 94 278 C93.27796387 277.59910156 92.55592773 277.19820312 91.81201172 276.78515625 C80.77841516 270.69834286 69.43410047 265.36803276 57.98828125 260.10717773 C28.13166419 246.34036246 -0.0920924 231.97175459 -24 209 C-24.6909375 208.38382813 -25.381875 207.76765625 -26.09375 207.1328125 C-46.45044318 188.36127166 -59.15038093 158.23126988 -61 131 C-61.16700652 125.81470661 -61.22777629 120.63453155 -61.24023438 115.44677734 C-61.24986762 113.03316808 -61.28093284 110.62043907 -61.3125 108.20703125 C-61.38469964 97.48552101 -60.21225861 87.48162877 -58 77 C-57.75652832 75.80213867 -57.51305664 74.60427734 -57.26220703 73.37011719 C-52.35954463 49.84485133 -40.73914014 25.50466444 -20.20654297 11.80322266 C-15.88218728 9.0658869 -11.45610614 6.51513947 -7 4 C-5.6806143 3.24675071 -4.36159 2.49286797 -3.04296875 1.73828125 C-2.03878906 1.16464844 -1.03460937 0.59101563 0 0 Z " fill="#01616B" transform="translate(1793,434)"/>
    <path d="M0 0 C7.49709058 0.4070616 14.16018765 1.60526219 21.25 4.0625 C22.15967529 4.37485596 23.06935059 4.68721191 24.0065918 5.0090332 C43.90739982 12.07049711 59.91076564 24.45533951 75 39 C75.70253906 39.65097656 76.40507813 40.30195313 77.12890625 40.97265625 C83.49133222 47.02660096 88.77986217 53.96375546 94 61 C94.40976074 61.54946289 94.81952148 62.09892578 95.24169922 62.66503906 C114.00057386 88.22506243 125.5615786 118.40925419 133 149 C133.30550781 150.216875 133.61101562 151.43375 133.92578125 152.6875 C142.07937272 188.81418219 140.93983022 227.17893048 132 263 C131.76297363 263.95342285 131.52594727 264.9068457 131.28173828 265.88916016 C123.99310584 294.63647821 112.47542161 321.90966566 95 346 C94.59910156 346.56170898 94.19820312 347.12341797 93.78515625 347.70214844 C73.45161252 375.91250423 43.5983639 399.70289052 9 407 C5.90113704 407.26069132 3.11153989 407.21458896 0 407 C3.55515065 402.55606169 7.33989598 398.69491861 11.5625 394.875 C51.63233885 358.61441747 59.73620274 309.36590727 62.81091309 257.27340698 C63.50077771 243.14261072 63.29401251 228.9573248 63.26074219 214.81420898 C63.24934049 209.91769043 63.25612811 205.02138909 63.26762009 200.12487793 C63.307785 179.99280068 63.2095255 160.03443777 61 140 C60.85180409 138.54589177 60.7042965 137.09171316 60.55761719 135.63745117 C55.71937253 90.26049497 44.79771333 45.4107547 12 12 C11.31679688 11.30132812 10.63359375 10.60265625 9.9296875 9.8828125 C8.30074629 8.2397679 6.65519935 6.61650638 5 5 C4.01958678 4.02208147 3.04030388 3.04302756 2.0625 2.0625 C1.381875 1.381875 0.70125 0.70125 0 0 Z " fill="#01616B" transform="translate(519,424)"/>
    <path d="M0 0 C0 4.09338389 -2.12465416 5.64364955 -4.8125 8.4375 C-5.30878906 8.96827148 -5.80507813 9.49904297 -6.31640625 10.04589844 C-8.78536247 12.68475126 -11.28373173 15.29404924 -13.79296875 17.89453125 C-45.06569111 50.88206378 -55.18980286 94.9232283 -60 139 C-60.07412109 139.67001038 -60.14824219 140.34002075 -60.22460938 141.03033447 C-62.63516676 163.06980823 -63.26826008 185.02341633 -63.25 207.1875 C-63.24897278 208.96864197 -63.24897278 208.96864197 -63.2479248 210.7857666 C-63.14268453 266.02160142 -61.39090704 340.42972748 -21 383 C-19.91128097 384.28713044 -18.82766532 385.57860063 -17.75 386.875 C-14.00010903 391.21884533 -9.74064775 394.9990295 -5.44238281 398.78857422 C-2.63464195 401.30290699 -0.33728816 403.42254122 1 407 C-32.32207614 403.40462582 -61.22216514 381.27993103 -82 356 C-90.95819094 344.7014057 -98.40349625 332.80085865 -105 320 C-105.37044434 319.30487305 -105.74088867 318.60974609 -106.12255859 317.89355469 C-117.80570729 295.86600505 -126.00543314 269.97364019 -130.125 245.4375 C-130.29386719 244.47392578 -130.46273438 243.51035156 -130.63671875 242.51757812 C-132.27010837 232.98089777 -133.1556869 223.59371155 -133.203125 213.91796875 C-133.20882507 212.98310135 -133.21452515 212.04823395 -133.22039795 211.08503723 C-133.22978364 209.11440131 -133.23635609 207.14375016 -133.24023438 205.1730957 C-133.24985138 202.23293789 -133.28090046 199.29350748 -133.3125 196.35351562 C-133.56510941 150.84657569 -118.78205155 103.93265353 -92 67 C-91.58298828 66.41911621 -91.16597656 65.83823242 -90.73632812 65.23974609 C-85.13292878 57.50556892 -78.95991171 50.33609289 -72.36914062 43.43652344 C-71.04194932 42.04401387 -69.7316017 40.63551092 -68.421875 39.2265625 C-49.64932282 19.61093163 -26.2628473 6.4854464 0 0 Z " fill="#01616B" transform="translate(484,424)"/>
    <path d="M0 0 C2.97 0 5.94 0 9 0 C10.90802652 1.90802652 10.35385251 4.77326334 10.54394531 7.33398438 C13.46235655 45.9787284 24.20683005 86.90442089 54.47265625 113.06640625 C66.89842539 123.42765847 80.60676472 132.21434477 94.58203125 140.32299805 C96.06929204 141.19077204 97.53716223 142.09165973 99 143 C99 143.33 99 143.66 99 144 C77.44565508 145.585742 60.09255227 136.07063274 41.2578125 126.62475586 C40.36835937 126.1788208 39.47890625 125.73288574 38.5625 125.2734375 C37.35787109 124.66701416 37.35787109 124.66701416 36.12890625 124.04833984 C30.20472713 121.13108925 24.57273974 119.97053474 18 121 C12.82763738 124.71349111 12.16475048 132.06130513 11 138 C10.57582478 140.67148819 10.25904964 143.3058837 10 146 C6.7 146 3.4 146 0 146 C0 97.82 0 49.64 0 0 Z " fill="#07656F" transform="translate(1734,684)"/>
    <path d="M0 0 C62.55005656 0 62.55005656 0 77.25390625 13.9765625 C84.2162216 22.04474897 88.28291961 29.85853856 88.44140625 40.52734375 C88.46206398 41.76539513 88.46206398 41.76539513 88.48313904 43.02845764 C88.50636751 44.77582152 88.52365507 46.52327316 88.53540039 48.27075195 C88.56210908 50.89903151 88.63699279 53.52313889 88.71289062 56.15039062 C88.92607584 69.89273743 86.22511648 79.60761307 76.6875 90 C55.02780654 109.68730991 28.92025605 104 0 104 C0 69.68 0 35.36 0 0 Z M14 12 C14 38.4 14 64.8 14 92 C42.47805186 94.07116088 42.47805186 94.07116088 66.35546875 81.87890625 C76.44329402 70.35338617 77.03335148 57.34131089 76.24560547 42.63671875 C75.30670208 32.55704018 69.639777 24.39772737 62 18 C45.8979855 8.65738731 35.83421954 12 14 12 Z " fill="#926A35" transform="translate(1159,919)"/>
    <path d="M0 0 C2.97 0 5.94 0 9 0 C9 47.85 9 95.7 9 145 C6.03 145 3.06 145 0 145 C-0.12528076 144.01418945 -0.25056152 143.02837891 -0.37963867 142.01269531 C-6.90527264 90.56356654 -6.90527264 90.56356654 -32 46 C-32.56847656 45.2884375 -33.13695312 44.576875 -33.72265625 43.84375 C-39.58510044 36.77396592 -46.69206104 31.4709592 -54 26 C-54.91910156 25.29875 -55.83820313 24.5975 -56.78515625 23.875 C-67.24820366 16.04744115 -78.48683706 9.16776586 -90 3 C-90 2.34 -90 1.68 -90 1 C-69.30916631 -0.79400292 -48.93264308 10.492186 -30.97265625 19.4921875 C-21.46818113 24.35676956 -21.46818113 24.35676956 -10.98046875 25.671875 C-7.94634572 24.64254727 -6.91418648 23.63053847 -5 21 C-3.798902 17.47577986 -3.02051105 13.88933209 -2.25 10.25 C-1.91935547 8.77466797 -1.91935547 8.77466797 -1.58203125 7.26953125 C-1.04151076 4.84893949 -0.5147223 2.42618487 0 0 Z " fill="#02626C" transform="translate(1934,430)"/>
    <path d="M0 0 C35.31 0 70.62 0 107 0 C107 38.61 107 77.22 107 117 C103.37 117 99.74 117 96 117 C95.97421875 115.53433594 95.9484375 114.06867188 95.921875 112.55859375 C95.17955705 82.92031247 91.17932814 54.66777856 69 33 C56.55707638 21.36414378 38.90721894 16.52365597 23.19604492 10.65600586 C15.32324112 7.70872603 7.59063043 4.63255713 0 1 C0 0.67 0 0.34 0 0 Z " fill="#07656F" transform="translate(1580,430)"/>
    <path d="M0 0 C3.3 0 6.6 0 10 0 C10 38.61 10 77.22 10 117 C-25.31 117 -60.62 117 -97 117 C-95.65009066 114.30018131 -94.41031358 114.19729829 -91.6105957 113.13989258 C-90.67484207 112.78224319 -89.73908844 112.42459381 -88.77497864 112.05610657 C-87.7522435 111.67278671 -86.72950836 111.28946686 -85.67578125 110.89453125 C-84.62279343 110.49223801 -83.5698056 110.08994476 -82.48490906 109.67546082 C-77.97266346 107.95176838 -73.45434597 106.24425302 -68.9362793 104.53588867 C-42.95862991 94.69186686 -23.05446939 86.30678163 -10.25390625 60.4765625 C-1.90949956 41.29066981 -1.05571568 20.60791348 0 0 Z " fill="#03636C" transform="translate(1677,709)"/>
    <path d="M0 0 C2.25130817 1.6818373 4.31781765 3.44690071 6.37890625 5.35546875 C7.0028125 5.90074219 7.62671875 6.44601562 8.26953125 7.0078125 C17.47872597 15.51630762 23.11434407 27.15685658 23.7265625 39.66015625 C23.77134766 41.59997463 23.80117188 43.54019326 23.81640625 45.48046875 C23.82655762 46.39860352 23.83670898 47.31673828 23.84716797 48.26269531 C23.66384104 62.67580701 17.56280876 74.77109065 7.7265625 85.1328125 C-2.31853726 94.64306502 -13.09899817 97.95733618 -26.70263672 97.75561523 C-40.8122927 97.25159867 -51.77689607 91.22801911 -61.546875 81.01953125 C-71.22454734 68.5898278 -74.5665151 53.85681122 -73.62109375 38.35546875 C-71.66727574 24.35609385 -64.31477804 11.01136403 -53.0546875 2.390625 C-36.58113012 -8.69329056 -17.39088647 -10.91142057 0 0 Z M-50.93359375 17.66796875 C-60.01193933 28.39199052 -60.44675614 40.46712862 -59.84326172 53.94433594 C-59.01778029 62.9030772 -53.86476042 71.07448933 -47.62109375 77.35546875 C-37.91286258 85.1120452 -28.76240622 86.5267624 -16.62109375 85.35546875 C-7.01786892 83.14341558 0.04493261 75.72458167 5.12890625 67.62890625 C10.97907006 56.98892082 12.40917544 43.82585014 9.31640625 32.04296875 C5.92383093 22.59791163 0.07672406 13.82758166 -8.95703125 9.14453125 C-24.69284421 1.96411174 -39.09622957 5.12913114 -50.93359375 17.66796875 Z " fill="#926A35" transform="translate(1504.62109375,924.64453125)"/>
    <path d="M0 0 C3.3 0 6.6 0 10 0 C10 50.82 10 101.64 10 154 C6.7 154 3.4 154 0 154 C-0.09796875 152.51371094 -0.1959375 151.02742187 -0.296875 149.49609375 C-1.65666908 130.61252726 -3.83755973 109.15503271 -18.84765625 95.671875 C-30.29435362 86.78042949 -43.01562877 83.80350977 -57 81 C-58.79281773 80.60941319 -60.58468604 80.21440721 -62.375 79.8125 C-63.57125 79.544375 -64.7675 79.27625 -66 79 C-66 78.01 -66 77.02 -66 76 C-60.26473946 74.73149532 -54.59040545 73.82829684 -48.75 73.1875 C-35.62819721 71.46790891 -21.0538206 66.86193518 -12.5625 56.0625 C-11.67732471 54.72839627 -10.82098004 53.37453986 -10 52 C-9.63519531 51.41992188 -9.27039062 50.83984375 -8.89453125 50.2421875 C-0.36242861 35.13938513 -0.83407058 16.83229028 0 0 Z " fill="#05646E" transform="translate(1585,545)"/>
    <path d="M0 0 C33.33 0 66.66 0 101 0 C101 38.94 101 77.88 101 118 C96.0789372 116.7697343 94.99244212 114.96296389 92 111 C90.62232422 108.24464844 90.6367961 105.76466389 90.38671875 102.69140625 C90.27537598 101.3957373 90.1640332 100.10006836 90.04931641 98.76513672 C89.99076477 98.0786908 89.93221313 97.39224487 89.87188721 96.68499756 C87.95551838 74.62550536 85.30240551 53.44985808 72 35 C71.48953125 34.28070313 70.9790625 33.56140625 70.453125 32.8203125 C59.06693459 18.33392173 40.72749326 14.28715156 23.44116211 12.08813477 C14.21222833 10.87069372 6.70958332 8.70958332 0 2 C0 1.34 0 0.68 0 0 Z " fill="#03636C" transform="translate(213,430)"/>
    <path d="M0 0 C3.3 0 6.6 0 10 0 C10 50.82 10 101.64 10 154 C6.7 154 3.4 154 0 154 C-0.02578125 152.90945313 -0.0515625 151.81890625 -0.078125 150.6953125 C-0.72734738 131.42138841 -3.75182442 111.86714368 -17 97 C-27.12493016 88.1957129 -38.77594989 85.08138307 -51.5625 82.25 C-52.96698916 81.93183723 -54.37128798 81.61283297 -55.77539062 81.29296875 C-59.18145606 80.51894112 -62.58994896 79.75630117 -66 79 C-66 78.01 -66 77.02 -66 76 C-64.88818359 75.83564453 -64.88818359 75.83564453 -63.75390625 75.66796875 C-61.48798901 75.32683311 -59.22380954 74.97406454 -56.9609375 74.61328125 C-54.28304843 74.18752773 -51.6042555 73.81913458 -48.9140625 73.48046875 C-36.25133414 71.74790696 -21.46120876 67.258916 -13 57 C-0.65942141 40.22405453 -0.64191944 19.93328774 0 0 Z " fill="#02626C" transform="translate(239,545)"/>
    <path d="M0 0 C22.77 0 45.54 0 69 0 C69 3.96 69 7.92 69 12 C50.52 12 32.04 12 13 12 C13 22.89 13 33.78 13 45 C28.84 45 44.68 45 61 45 C61 48.63 61 52.26 61 56 C45.16 56 29.32 56 13 56 C13 67.88 13 79.76 13 92 C31.81 92 50.62 92 70 92 C70 95.96 70 99.92 70 104 C46.9 104 23.8 104 0 104 C0 69.68 0 35.36 0 0 Z " fill="#936C37" transform="translate(507,919)"/>
    <path d="M0 0 C2.73828125 1.71875 2.73828125 1.71875 3.73828125 4.71875 C2.5234375 6.98046875 2.5234375 6.98046875 0.80078125 9.40625 C0.23488281 10.21449219 -0.33101562 11.02273438 -0.9140625 11.85546875 C-1.35878906 12.47035156 -1.80351563 13.08523438 -2.26171875 13.71875 C-3.00615234 13.22955078 -3.00615234 13.22955078 -3.765625 12.73046875 C-13.29208195 6.60244426 -21.29504466 4.52431533 -32.57421875 4.40625 C-33.48623047 4.37724609 -34.39824219 4.34824219 -35.33789062 4.31835938 C-41.42908477 4.26159556 -46.25486578 5.06387573 -51.26171875 8.71875 C-54.19527738 12.13937668 -55.48642531 15.33252908 -55.69921875 19.84375 C-55.09235044 25.21886932 -53.81615417 27.46039752 -49.63671875 30.84375 C-42.59252751 34.75718958 -34.82164111 36.36044925 -27.01171875 38.09375 C-0.9750215 44.14879587 -0.9750215 44.14879587 6.73828125 55.71875 C7.25544189 59.59706299 7.20107457 63.49722369 7.23828125 67.40625 C7.27953125 68.47037109 7.32078125 69.53449219 7.36328125 70.63085938 C7.42714382 77.09295323 6.75374048 81.22821915 2.42285156 86.15649414 C0.07869006 88.33044913 -2.23332203 89.76142206 -5.13671875 91.09375 C-6.58691406 91.78597656 -6.58691406 91.78597656 -8.06640625 92.4921875 C-22.12102768 97.88723778 -40.69374256 98.09305691 -54.9609375 93.20703125 C-61.66285477 90.18522003 -67.98498352 86.53370076 -74.26171875 82.71875 C-72.83443056 78.12828257 -71.06445178 74.64257624 -68.26171875 70.71875 C-67.59527344 71.17765625 -66.92882812 71.6365625 -66.2421875 72.109375 C-59.79789055 76.3995643 -53.65549169 79.4516301 -46.26171875 81.71875 C-45.02421875 82.13125 -43.78671875 82.54375 -42.51171875 82.96875 C-33.04320212 85.13131244 -22.15719767 84.75434372 -13.26171875 80.71875 C-9.85877413 78.52101493 -7.46049832 76.64202858 -6.26171875 72.71875 C-5.62104215 67.83359094 -5.60850235 64.94649188 -8.63671875 60.96875 C-16.56953893 53.11767483 -29.87506365 51.50406594 -40.38476562 48.796875 C-61.53839811 43.31767325 -61.53839811 43.31767325 -67.32421875 34.53125 C-70.87000639 28.13369009 -70.9664448 21.90531684 -70.26171875 14.71875 C-67.813351 6.42404619 -62.48579189 0.89905407 -55.21484375 -3.52734375 C-37.28956891 -13.01106474 -17.21785775 -8.58070288 0 0 Z " fill="#926934" transform="translate(730.26171875,926.28125)"/>
    <path d="M0 0 C4.29 0 8.58 0 13 0 C13.01458252 1.88638184 13.02916504 3.77276367 13.04418945 5.71630859 C13.09605432 11.98288846 13.16139635 18.2492174 13.23571491 24.51556969 C13.28024367 28.31097624 13.31953696 32.10627977 13.34643555 35.90185547 C13.37264491 39.57198012 13.413168 43.24170451 13.46318626 46.91157913 C13.47973687 48.30438849 13.49132405 49.69726688 13.49761391 51.09016037 C13.55841841 63.32933469 15.15049305 74.19233648 23 84 C31.6476716 91.2876959 39.98975241 91.63666298 50.87744141 91.18798828 C55.14786232 90.80977065 58.47219233 89.34914339 62 87 C62.9075 86.443125 63.815 85.88625 64.75 85.3125 C74.3118369 75.48505652 75.45401297 62.93872081 75.51171875 49.90234375 C75.52859386 48.45787559 75.54674784 47.01342186 75.56611633 45.56898499 C75.61331575 41.79619865 75.64331823 38.02347084 75.66955566 34.25048828 C75.69951431 30.38887986 75.74599141 26.52747257 75.79101562 22.66601562 C75.87670614 15.11076044 75.94267233 7.55553339 76 0 C80.29 0 84.58 0 89 0 C89.06813227 8.39808815 89.12301968 16.79595666 89.15543652 25.1942482 C89.17100523 29.09509915 89.19207974 32.99574907 89.22631836 36.89648438 C89.25922949 40.67016285 89.27691889 44.44364957 89.28463173 48.21746063 C89.29011891 49.64777387 89.30083163 51.07807819 89.31719017 52.50830841 C89.48085189 67.42854789 87.18419393 81.3466648 76.875 92.8125 C72.30849149 97.05282933 66.65171137 99.512939 61 102 C60.22172852 102.34909424 59.44345703 102.69818848 58.64160156 103.05786133 C49.10091125 106.46058997 33.33273529 105.52501511 24.21484375 101.328125 C12.32084246 94.19591964 5.10669049 85.52815515 1.46408081 72.01133728 C-0.27530255 64.35707933 -0.25636391 56.83736842 -0.1953125 49.0234375 C-0.19157374 47.60283611 -0.18873086 46.18223211 -0.18673706 44.7616272 C-0.17916839 41.05613858 -0.1595797 37.35081139 -0.1373291 33.64538574 C-0.11672327 29.85085228 -0.10770411 26.05629226 -0.09765625 22.26171875 C-0.07632603 14.84106437 -0.04120077 7.42057554 0 0 Z " fill="#926934" transform="translate(979,919)"/>
    <path d="M0 0 C3.56360194 1.35832541 6.88500359 2.93606665 10.23828125 4.75 C11.22376953 5.2759375 12.20925781 5.801875 13.22460938 6.34375 C15.27410835 7.44303851 17.3210185 8.54716807 19.36523438 9.65625 C29.46376982 15.02459197 38.42934426 17.30432846 50 16 C53.28561754 14.81235476 53.79314447 13.98223721 56 11 C57.31568939 7.67267741 58.16017023 4.49929072 59 1 C62.63 1 66.26 1 70 1 C70 40.6 70 80.2 70 121 C66.04 121 62.08 121 58 121 C57.30404523 117.52022615 56.84686102 114.61685669 56.67578125 111.140625 C54.61878486 76.55459048 44.21058903 49.63805751 21 24 C20.54238281 23.49275391 20.08476563 22.98550781 19.61328125 22.46289062 C16.88789183 19.4512208 14.13772053 16.46327335 11.37597656 13.48486328 C9.01312688 10.93503153 6.66026289 8.37622171 4.3125 5.8125 C3.48363281 4.91144531 2.65476562 4.01039063 1.80078125 3.08203125 C0 1 0 1 0 0 Z " fill="#03636C" transform="translate(1273,439)"/>
    <path d="M0 0 C2.97 0 5.94 0 9 0 C9 46.2 9 92.4 9 140 C6.03 140 3.06 140 0 140 C-0.07476563 138.83984375 -0.14953125 137.6796875 -0.2265625 136.484375 C-0.98109696 126.88336144 -1.98262986 117.94618856 -8 110 C-11.69230121 107.11442006 -14.35289481 106.44905454 -19 107 C-21.82903951 108.12279254 -21.82903951 108.12279254 -24.5 109.75 C-25.44488281 110.29398438 -26.38976563 110.83796875 -27.36328125 111.3984375 C-30.30814981 113.18717248 -33.1811194 115.01916498 -36 117 C-35.43131484 111.96752584 -33.72045342 107.89219101 -31.5625 103.375 C-26.2673098 91.89129302 -22.18660907 79.97676311 -18.05419922 68.03662109 C-17.22928097 65.66044388 -16.39021758 63.29117868 -15.53515625 60.92578125 C-9.22092448 42.96104775 -4.09990286 23.93783579 -1.47265625 5.078125 C-1 2 -1 2 0 0 Z " fill="#01626C" transform="translate(1334,685)"/>
    <path d="M0 0 C37.95 0 75.9 0 115 0 C115 3.63 115 7.26 115 11 C114.04222656 11.00410889 113.08445312 11.00821777 112.09765625 11.01245117 C108.51134952 11.03438203 104.92611839 11.08881207 101.34033203 11.15258789 C99.79453923 11.17564739 98.248592 11.19013512 96.70263672 11.19555664 C85.47127662 10.8699006 85.47127662 10.8699006 75.59251404 15.37626648 C70.3220738 20.75002789 69.16883148 27.95101482 68.18359375 35.125 C68.04099625 36.07133301 67.89839874 37.01766602 67.7514801 37.99267578 C67.30059245 40.99337616 66.86753898 43.99624653 66.4375 47 C66.00219538 50.00343285 65.56276123 53.00604936 65.11280823 56.00732422 C64.83446253 57.86701267 64.56452215 59.72798618 64.30455017 61.59033203 C63.48725202 67.08897324 62.12897191 71.86035697 60 77 C57.97790082 73.96685123 57.57812676 72.51963152 57.03515625 69.01171875 C56.87660156 68.00560547 56.71804688 66.99949219 56.5546875 65.96289062 C56.39226563 64.88201172 56.22984375 63.80113281 56.0625 62.6875 C55.88847656 61.57697266 55.71445312 60.46644531 55.53515625 59.32226562 C54.68327598 53.81323108 53.89525426 48.30241305 53.21484375 42.76953125 C53.09294678 41.79604736 52.9710498 40.82256348 52.84545898 39.81958008 C52.6221255 37.99676851 52.4111391 36.17238291 52.21508789 34.34643555 C51.38486981 27.53470951 49.68122407 21.18287244 45.18359375 15.84375 C44.60738281 15.4003125 44.03117188 14.956875 43.4375 14.5 C42.85871094 14.0359375 42.27992188 13.571875 41.68359375 13.09375 C37.63131712 10.46118049 33.26356244 10.7814941 28.61328125 10.68359375 C27.38776802 10.6524221 27.38776802 10.6524221 26.13749695 10.62062073 C23.52924966 10.55526921 20.92090225 10.49630727 18.3125 10.4375 C16.54360946 10.39430108 14.77472903 10.35068635 13.00585938 10.30664062 C8.67067537 10.19960257 4.33539071 10.09829456 0 10 C0 6.7 0 3.4 0 0 Z " fill="#07656F" transform="translate(928,430)"/>
    <path d="M0 0 C27.39 0 54.78 0 83 0 C83 3.63 83 7.26 83 11 C71.45 11 59.9 11 48 11 C48 41.69 48 72.38 48 104 C43.71 104 39.42 104 35 104 C35 73.31 35 42.62 35 11 C23.45 11 11.9 11 0 11 C0 7.37 0 3.74 0 0 Z " fill="#916833" transform="translate(812,919)"/>
    <path d="M0 0 C4.29 0 8.58 0 13 0 C13 34.32 13 68.64 13 104 C8.71 104 4.42 104 0 104 C0 69.68 0 35.36 0 0 Z " fill="#916934" transform="translate(1333,919)"/>
  </symbol>

</svg>