<svg width="781" height="186" viewBox="0 0 781 186" fill="none" xmlns="http://www.w3.org/2000/svg">
<path d="M738.191 89.6986C738.191 95.7051 735.784 99.309 729.765 99.309H721.941V66.2733H729.765C735.182 66.2733 738.191 69.8772 738.191 75.8837C738.191 75.8837 738.191 89.6986 738.191 89.6986ZM730.367 58.4648H712.913V140.754H722.543V107.718H730.367C741.802 107.718 748.423 102.312 748.423 91.5006V74.0817C748.423 64.4713 741.802 58.4648 730.367 58.4648Z" fill="#58595B"/>
<path d="M661.153 57.2627C650.32 57.2627 643.098 63.2692 643.098 74.0809V125.136C643.098 136.548 650.32 141.954 660.552 141.954C671.385 141.954 678.005 137.149 678.005 125.136V95.7043H659.95V104.113H668.376V124.535C668.376 131.143 665.366 132.945 659.95 132.945C655.135 132.945 651.524 130.542 651.524 123.935C651.524 107.117 651.524 73.4802 651.524 73.4802C651.524 67.4737 654.533 64.4705 659.95 64.4705C665.366 64.4705 668.376 67.4737 668.376 73.4802V81.8893H678.005V72.8796C678.607 62.6685 671.987 57.2627 661.153 57.2627Z" fill="#58595B"/>
<path d="M694.256 177.391C650.922 177.391 616.015 142.554 616.015 99.9075C616.015 57.2614 650.922 22.4237 694.256 22.4237C737.589 22.4237 772.497 57.2614 772.497 99.9075C772.497 142.554 737.589 177.391 694.256 177.391ZM694.256 14.0146C646.709 14.0146 607.589 52.4562 607.589 99.9075C607.589 147.359 646.709 185.8 694.256 185.8C741.802 185.8 780.922 147.359 780.922 99.9075C780.922 52.4562 742.404 14.0146 694.256 14.0146Z" fill="#58595B"/>
<path d="M694.857 93.3018C691.246 93.3018 688.237 96.305 688.237 99.9089C688.237 103.513 690.644 106.516 694.857 106.516C698.468 106.516 701.478 103.513 701.478 99.9089C701.478 96.305 697.866 93.3018 694.857 93.3018Z" fill="#58595B"/>
<path d="M170.043 97.5036C170.043 104.111 168.237 105.312 162.821 105.312H156.2V80.6854H162.821C168.237 80.6854 170.043 82.4873 170.043 88.4938V97.5036ZM162.821 72.877H147.173V138.948H156.2V112.52H162.821C174.256 112.52 179.071 108.315 179.071 97.5036V86.6919C179.071 77.0815 174.858 72.877 162.821 72.877Z" fill="#58595B"/>
<path d="M76.1527 93.299C76.1527 101.107 73.7453 101.708 68.9305 101.708H61.1064V80.0847H68.9305C73.7453 80.0847 76.1527 80.6854 76.1527 87.8932V93.299ZM68.9305 72.877H52.0786V138.948H61.1064V108.916H68.9305C74.3471 108.916 76.7545 110.117 76.7545 117.325C76.7545 132.942 76.7545 138.348 76.7545 138.348H85.1805V116.724C85.1805 110.117 83.9768 106.513 79.1619 104.711C84.5786 102.909 85.1805 98.1042 85.1805 92.0977V86.0912C85.1805 75.2795 79.1619 72.877 68.9305 72.877Z" fill="#58595B"/>
<path d="M19.579 55.4609C8.74566 55.4609 1.52344 61.4674 1.52344 72.2791V123.334C1.52344 134.747 8.74566 140.152 18.9771 140.152C29.8105 140.152 36.4308 135.347 36.4308 123.334V93.9025H18.9771V102.912H27.4031V123.334C27.4031 129.941 24.3938 131.743 18.9771 131.743C14.1623 131.743 10.5512 129.341 10.5512 122.734C10.5512 105.915 10.5512 72.2791 10.5512 72.2791C10.5512 66.2726 13.5605 63.2694 18.9771 63.2694C24.9957 63.87 28.0049 66.8733 28.0049 72.8798V81.2889H37.6345V72.2791C37.6345 60.8668 31.0142 55.4609 19.579 55.4609Z" fill="#58595B"/>
<path d="M212.774 124.532C212.774 129.938 210.367 132.941 204.95 132.941C200.135 132.941 197.126 130.538 197.126 124.532V88.493C197.126 82.4865 199.533 80.0839 204.95 80.0839C209.163 80.0839 212.774 82.4865 212.774 88.493V124.532ZM205.552 71.6748C195.32 71.6748 188.7 76.48 188.7 87.2917V124.532C188.7 134.743 194.718 140.149 205.552 140.149C215.783 140.149 221.802 134.743 221.802 124.532V86.691C221.802 75.8794 215.181 71.6748 205.552 71.6748Z" fill="#58595B"/>
<path d="M123.7 125.133C123.7 130.539 120.691 132.942 115.876 132.942C111.061 132.942 108.052 130.539 108.052 125.133V72.877H99.0244V125.734C99.0244 137.146 106.848 140.75 115.876 140.75C124.904 140.75 132.728 137.146 132.728 125.734V72.877H123.7V125.133Z" fill="#58595B"/>
<path d="M304.856 138.948H332.541V131.741H313.884V109.517H332.541V101.708H313.884V80.0847H332.541V72.877H304.856V138.948Z" fill="#58595B"/>
<path d="M477.589 71.6748C466.756 71.6748 460.737 77.0806 460.737 87.2917V90.2949C460.737 97.5027 463.747 101.707 469.163 104.711L478.793 110.717C483.608 114.321 484.811 114.922 484.811 119.126V125.133C484.811 130.538 482.404 132.941 476.987 132.941C472.173 132.941 469.163 130.538 469.163 125.133C469.163 125.133 469.163 119.126 469.163 114.922H460.135V125.133C460.135 135.944 466.154 140.749 476.987 140.749C487.219 140.749 493.839 135.344 493.839 125.133V119.126C493.839 111.918 491.432 108.314 485.413 104.711L475.784 98.704C470.367 95.1001 469.765 94.4995 469.765 89.6943V87.8923C469.765 81.8858 472.774 80.0839 477.589 80.0839C482.404 80.0839 485.413 82.4865 485.413 87.8923V95.1001H494.441V87.8923C494.441 77.0806 488.423 71.6748 477.589 71.6748Z" fill="#58595B"/>
<path d="M507.079 138.948H534.764V131.741H516.107V109.517H534.764V101.708H516.107V80.0847H534.764V72.877H507.079V138.948Z" fill="#58595B"/>
<path d="M440.273 93.299C440.273 101.107 437.865 101.708 433.051 101.708H425.227V80.0847H433.051C437.865 80.0847 440.273 80.6854 440.273 87.8932V93.299ZM433.051 72.877H416.199V138.948H425.227V108.916H433.051C438.467 108.916 440.875 110.117 440.875 117.325C440.875 132.942 440.875 138.348 440.875 138.348H449.902V116.724C449.902 110.117 448.699 106.513 443.884 104.711C449.301 102.909 449.902 98.1042 449.902 92.0977V86.0912C449.301 75.2795 443.282 72.877 433.051 72.877Z" fill="#58595B"/>
<path d="M571.477 117.926C571.477 123.932 572.079 128.737 572.079 131.741H571.477C571.477 131.741 570.875 123.932 569.671 121.53L559.44 73.4776H546.199V138.948H554.625V95.101C554.625 89.0945 554.023 80.6854 554.023 80.6854H554.625C554.625 80.6854 555.227 89.0945 556.431 93.299L566.662 138.948H579.903V72.877H571.477V117.926Z" fill="#58595B"/>
<path d="M337.356 80.0847H348.189V138.948H357.217V80.0847H368.05V72.877H337.356V80.0847Z" fill="#58595B"/>
<path d="M284.995 87.8929C284.995 93.8994 282.588 97.5033 276.569 97.5033H269.347V64.4676H276.569C281.986 64.4676 284.995 68.0715 284.995 74.078C284.995 74.6787 284.995 87.8929 284.995 87.8929ZM276.569 56.6592H259.717V138.948H269.347V105.912H277.171C288.606 105.912 295.227 100.507 295.227 89.6949V72.2761C295.227 62.6657 288.606 56.6592 276.569 56.6592Z" fill="#58595B"/>
<path d="M240.459 91.5C236.848 91.5 233.839 94.5032 233.839 98.1071C233.839 101.711 236.246 104.714 240.459 104.714C244.07 104.714 247.079 101.711 247.079 98.1071C247.079 94.5032 244.07 91.5 240.459 91.5Z" fill="#58595B"/>
<path d="M377.681 138.948H405.366V131.741H386.107V109.517H405.366V101.708H386.107V80.0847H405.366V72.877H377.681V138.948Z" fill="#58595B"/>
<path d="M62.9113 27.8274C62.9113 30.2299 62.3094 30.8306 59.902 30.8306H57.4946V10.4085H59.902C62.3094 10.4085 62.9113 11.0092 62.9113 13.4118V27.8274ZM60.5039 7.40527H54.4854V34.4345H60.5039C65.3187 34.4345 67.1242 32.6325 67.1242 28.428V13.4118C66.5224 9.20722 64.7168 7.40527 60.5039 7.40527Z" fill="#58595B"/>
<path d="M121.291 27.8294C121.291 30.232 120.087 31.4333 118.282 31.4333C116.476 31.4333 115.272 30.232 115.272 27.8294V13.4138C115.272 11.0112 116.476 9.80989 118.282 9.80989C120.087 9.80989 121.291 11.0112 121.291 13.4138V27.8294ZM118.282 6.80664C114.069 6.80664 111.661 8.60859 111.661 13.4138V28.43C111.661 32.6346 114.069 35.0372 118.282 35.0372C122.495 35.0372 124.902 33.2352 124.902 29.0307V12.8131C124.902 8.60859 122.495 6.80664 118.282 6.80664Z" fill="#58595B"/>
<path d="M27.4016 28.428C27.4016 30.8306 26.1979 31.4312 24.3923 31.4312C22.5868 31.4312 21.3831 30.8306 21.3831 28.428V7.40527H17.772V28.428C17.772 33.2332 20.7812 34.4345 24.3923 34.4345C28.0035 34.4345 31.0127 33.2332 31.0127 28.428V7.40527H27.4016V28.428Z" fill="#58595B"/>
<path d="M147.772 34.4345H159.208V30.8306H151.384V21.8209H159.208V18.8176H151.384V10.4085H159.208V7.40527H147.772V34.4345Z" fill="#58595B"/>
<path d="M170.042 6.80664C165.829 6.80664 163.421 9.20924 163.421 12.8131V14.0144C163.421 17.0177 164.625 18.8196 166.43 20.0209L170.643 22.4235C172.449 23.6248 173.051 24.2255 173.051 26.0274V28.43C173.051 30.8326 171.847 31.4333 170.042 31.4333C168.236 31.4333 167.032 30.232 167.032 28.43V24.2255H163.421V28.43C163.421 32.6346 165.829 35.0372 170.042 35.0372C174.254 35.0372 176.662 32.6346 176.662 29.0307V26.0274C176.662 23.0242 175.458 21.8229 173.653 20.0209L169.44 17.6183C167.634 16.417 167.032 15.8164 167.032 14.0144V13.4138C167.032 11.0112 168.236 10.4105 170.042 10.4105C171.847 10.4105 173.051 11.6118 173.051 13.4138V16.417H176.662V13.4138C176.662 9.20924 174.254 6.80664 170.042 6.80664Z" fill="#58595B"/>
<path d="M46.0591 25.4248C46.0591 27.8274 46.0591 29.6293 46.0591 30.8306C46.0591 30.8306 45.4573 27.8274 45.4573 26.6261L41.2443 7.40527H35.8276V34.4345H39.4387V16.415C39.4387 14.0124 39.4387 10.4085 39.4387 10.4085C39.4387 10.4085 40.0406 13.4118 40.0406 15.8144L43.6517 34.4345H49.0684V7.40527H45.4573L46.0591 25.4248Z" fill="#58595B"/>
<path d="M139.949 25.4248C139.949 27.8274 139.949 29.6293 139.949 30.8306C139.949 30.8306 139.347 27.8274 139.347 26.6261L135.134 7.40527H129.717V34.4345H133.328V16.415C133.328 14.0124 133.328 10.4085 133.328 10.4085C133.328 10.4085 133.93 13.4118 133.93 15.8144L137.541 34.4345H142.958V7.40527H139.347L139.949 25.4248Z" fill="#58595B"/>
<path d="M106.847 7.40527H103.236V34.4345H106.847V7.40527Z" fill="#58595B"/>
<path d="M13.56 15.2154H4.53225V3.80305H14.7637V0.799805H0.921143V34.4362H4.53225V18.8193H13.56V15.2154Z" fill="#58595B"/>
<path d="M96.0146 27.8294C96.0146 30.232 94.8109 31.4333 93.0054 31.4333C91.1998 31.4333 89.9961 30.232 89.9961 27.8294V13.4138C89.9961 11.0112 91.1998 9.80989 93.0054 9.80989C94.8109 9.80989 96.0146 10.4105 96.0146 12.8131H99.6258C99.6258 8.60859 96.6165 6.80664 93.0054 6.80664C88.7924 6.80664 86.385 8.60859 86.385 13.4138V28.43C86.385 32.6346 88.7924 35.0372 93.0054 35.0372C97.2184 35.0372 99.6258 33.2352 99.6258 29.0307V27.8294H96.0146Z" fill="#58595B"/>
<path d="M77.9572 7.40527H74.948L68.9294 34.4345H72.5406L73.7443 28.428H79.1609L80.3646 34.4345H83.9757L77.9572 7.40527ZM74.3461 24.8241L76.1517 15.8144V14.0124H76.7535V15.8144L78.5591 24.8241H74.3461Z" fill="#58595B"/>
</svg>
