<?xml version="1.0" standalone="no"?>
<!DOCTYPE svg PUBLIC "-//W3C//DTD SVG 20010904//EN"
 "http://www.w3.org/TR/2001/REC-SVG-20010904/DTD/svg10.dtd">
<svg version="1.0" xmlns="http://www.w3.org/2000/svg"
 width="594.000000pt" height="420.000000pt" viewBox="0 0 594.000000 420.000000"
 preserveAspectRatio="xMidYMid meet">

<g transform="translate(0.000000,420.000000) scale(0.100000,-0.100000)"
fill="#000000" stroke="none">
<path d="M0 3060 c0 -4 6 -12 13 -19 9 -9 12 -213 13 -945 0 -512 3 -940 7
-949 6 -16 179 -17 2889 -17 1586 0 2905 3 2931 7 33 4 51 12 58 25 12 22 12
218 3 903 -3 242 -4 537 -2 655 1 118 3 244 3 279 l0 64 -2958 1 c-1626 1
-2957 -1 -2957 -4z m1373 -84 c-106 -116 -145 -265 -146 -556 0 -306 34 -450
135 -556 28 -30 49 -57 46 -59 -10 -10 -113 35 -160 70 -95 70 -190 239 -222
397 -47 228 21 473 173 628 63 65 169 130 210 130 7 0 -9 -24 -36 -54z m254
25 c120 -57 228 -196 281 -361 24 -76 27 -100 27 -230 0 -126 -3 -154 -24
-215 -60 -178 -160 -307 -283 -365 -34 -16 -74 -30 -87 -30 -20 0 -17 5 28 46
95 85 132 204 147 469 4 83 2 176 -6 255 -21 213 -60 327 -142 416 -50 54 -33
58 59 15z m2101 21 c8 -5 -7 -14 -42 -25 -111 -35 -166 -101 -205 -247 -66
-244 -52 -587 30 -752 43 -86 153 -148 261 -148 33 0 38 -3 29 -13 -38 -47
-218 -49 -314 -5 -78 37 -173 133 -214 218 -119 243 -97 570 53 796 71 107
206 183 324 184 36 0 71 -4 78 -8z m-3358 -591 l0 -580 52 -3 c30 -2 53 -8 56
-15 3 -10 -42 -13 -203 -13 -161 0 -206 3 -203 13 3 6 23 13 46 15 l42 3 0
564 0 564 -42 3 c-23 2 -43 9 -46 16 -3 9 31 12 147 12 l151 0 0 -579z m530
404 c0 -108 -4 -175 -10 -175 -11 0 -14 13 -30 115 -20 125 -74 185 -181 200
-26 4 -56 13 -66 21 -16 12 2 13 135 14 l152 0 0 -175z m1590 160 c0 -12 -13
-15 -56 -15 l-55 0 3 -477 c3 -475 3 -478 26 -528 48 -105 102 -139 219 -140
78 0 85 2 174 48 50 26 94 45 96 43 11 -11 -87 -89 -137 -108 -47 -19 -75 -22
-185 -22 -108 0 -142 4 -201 23 -93 30 -162 82 -194 146 l-25 50 -3 483 -3
482 -54 0 c-42 0 -55 3 -55 15 0 13 32 15 225 15 193 0 225 -2 225 -15z m620
0 c0 -11 -12 -15 -48 -15 -70 0 -81 -12 -101 -115 -19 -96 -20 -95 -40 23 -14
86 -20 92 -97 92 -50 0 -64 3 -64 15 0 13 26 15 175 15 149 0 175 -2 175 -15z
m1360 -580 l0 -595 -155 0 c-131 0 -155 2 -155 15 0 11 12 15 45 15 l45 0 0
565 0 565 -45 0 c-33 0 -45 4 -45 15 0 13 24 15 155 15 l155 0 0 -595z m590
420 c0 -145 -2 -175 -14 -175 -10 0 -17 17 -21 58 -9 74 -23 119 -50 160 -30
44 -47 55 -141 92 -43 18 -81 34 -83 36 -2 2 66 4 152 4 l157 0 0 -175z m617
135 c87 -40 108 -40 123 5 6 19 18 35 26 35 12 0 14 -33 12 -217 -3 -245 -15
-282 -42 -134 -9 49 -25 110 -36 135 -25 60 -89 128 -162 173 -32 20 -58 38
-58 41 0 11 77 -10 137 -38z m-304 17 c-4 -7 -25 -37 -46 -68 -53 -78 -59
-139 -23 -212 30 -61 65 -90 171 -137 241 -108 303 -149 358 -237 109 -173 53
-418 -113 -503 -60 -31 -66 -24 -22 24 55 59 72 96 72 153 0 90 -33 122 -224
211 -117 56 -218 123 -260 173 -73 87 -104 210 -86 341 17 117 51 179 134 239
43 32 51 35 39 16z m-1460 -48 c33 -9 67 4 67 26 0 8 9 15 20 15 19 0 20 -7
20 -180 0 -168 -1 -180 -18 -180 -16 0 -21 13 -29 75 -13 92 -41 150 -104 219
-27 30 -49 57 -49 60 0 4 14 -1 32 -10 17 -9 45 -20 61 -25z m-3213 -504 c0
-191 -3 -235 -14 -235 -9 0 -15 18 -19 54 -10 97 -55 147 -145 162 -55 9 -53
20 4 28 25 3 59 14 75 23 38 23 69 87 69 144 0 45 5 59 22 59 4 0 8 -106 8
-235z m4080 0 c0 -202 -2 -235 -15 -235 -10 0 -15 10 -15 28 0 91 -62 174
-140 187 -69 11 -69 17 0 31 98 20 140 77 140 188 0 25 4 36 15 36 13 0 15
-33 15 -235z m-760 -405 c0 -180 -2 -210 -15 -210 -8 0 -15 9 -15 20 0 31 -28
80 -46 80 -8 0 -25 -7 -39 -16 l-23 -15 30 77 c26 67 43 128 72 247 3 15 13
27 21 27 13 0 15 -31 15 -210z m1215 173 c31 -191 78 -272 207 -354 44 -29 49
-34 31 -37 -13 -2 -60 13 -106 32 -45 20 -90 36 -100 36 -10 0 -20 -14 -28
-40 -25 -83 -34 -39 -37 183 -2 186 0 217 12 217 10 0 17 -14 21 -37z m-175
-208 l0 -175 -157 0 -158 1 84 34 c47 19 96 42 110 53 42 30 71 94 83 181 8
54 16 81 25 81 10 0 13 -38 13 -175z m-3360 -485 c0 -18 -7 -20 -85 -20 l-85
0 0 -50 0 -50 75 0 c60 0 75 -3 75 -15 0 -12 -15 -15 -75 -15 l-75 0 0 -55 0
-55 85 0 c78 0 85 -2 85 -20 0 -19 -7 -20 -105 -20 l-105 0 0 160 0 160 105 0
c98 0 105 -1 105 -20z m440 7 c27 -14 34 -43 10 -40 -8 1 -32 6 -52 11 -50 13
-88 4 -100 -24 -16 -34 12 -60 78 -74 73 -15 108 -46 108 -94 0 -49 -29 -77
-87 -83 -58 -7 -105 2 -137 27 -19 14 -22 22 -14 30 9 9 19 8 42 -4 36 -19
123 -21 140 -4 33 33 3 68 -81 92 -32 9 -67 26 -77 36 -30 30 -26 76 9 111 25
25 37 29 83 29 29 0 64 -6 78 -13z m530 -7 c0 -18 -7 -20 -55 -20 l-55 0 0
-140 c0 -133 -1 -140 -20 -140 -19 0 -20 7 -20 140 l0 140 -55 0 c-48 0 -55 2
-55 20 0 19 7 20 130 20 123 0 130 -1 130 -20z m290 -89 c0 -103 1 -111 26
-140 20 -24 34 -31 63 -31 77 0 101 46 101 193 0 80 2 87 20 87 19 0 20 -7 20
-102 -1 -162 -38 -218 -144 -218 -63 0 -110 42 -125 111 -12 55 -15 192 -4
202 3 4 15 7 25 7 16 0 18 -10 18 -109z m701 86 c96 -64 90 -226 -11 -277 -29
-15 -59 -20 -115 -20 l-75 0 0 160 0 160 84 0 c70 0 88 -4 117 -23z m369 -137
c0 -153 -1 -160 -20 -160 -19 0 -20 7 -20 160 0 153 1 160 20 160 19 0 20 -7
20 -160z m487 140 c18 -10 41 -37 53 -59 55 -109 -15 -241 -129 -241 -149 0
-207 212 -81 298 42 28 112 30 157 2z"/>
<path d="M3500 1370 l0 -120 59 0 c71 0 105 22 122 81 9 30 9 48 0 78 -17 59
-51 81 -122 81 l-59 0 0 -120z"/>
<path d="M4377 1469 c-37 -29 -54 -88 -38 -138 15 -52 52 -81 103 -81 49 0 93
40 103 93 9 48 1 78 -31 116 -21 26 -33 31 -69 31 -28 0 -51 -7 -68 -21z"/>
</g>
</svg>
