<svg xmlns="http://www.w3.org/2000/svg" xmlns:xlink="http://www.w3.org/1999/xlink" width="500" zoomAndPan="magnify" viewBox="0 0 375 374.999991" height="500" preserveAspectRatio="xMidYMid meet" version="1.0"><defs><clipPath id="addc1d6400"><path d="M 86.882812 91.9375 L 99.300781 91.9375 L 99.300781 94.042969 L 86.882812 94.042969 Z M 86.882812 94.042969 L 89.25 94.042969 L 89.25 100.082031 L 86.882812 100.082031 Z M 86.882812 100.082031 L 97.988281 100.082031 L 97.988281 102.050781 L 86.882812 102.050781 Z M 86.882812 102.050781 L 89.25 102.050781 L 89.25 108.488281 L 86.882812 108.488281 Z M 86.882812 108.488281 L 99.539062 108.488281 L 99.539062 110.589844 L 86.882812 110.589844 Z M 86.882812 108.488281 " clip-rule="nonzero"/></clipPath><clipPath id="64bf394c93"><path d="M 0.882812 0.9375 L 13.300781 0.9375 L 13.300781 3.042969 L 0.882812 3.042969 Z M 0.882812 3.042969 L 3.25 3.042969 L 3.25 9.082031 L 0.882812 9.082031 Z M 0.882812 9.082031 L 11.988281 9.082031 L 11.988281 11.050781 L 0.882812 11.050781 Z M 0.882812 11.050781 L 3.25 11.050781 L 3.25 17.488281 L 0.882812 17.488281 Z M 0.882812 17.488281 L 13.539062 17.488281 L 13.539062 19.589844 L 0.882812 19.589844 Z M 0.882812 17.488281 " clip-rule="nonzero"/></clipPath><clipPath id="bc51e4319b"><rect x="0" width="14" y="0" height="20"/></clipPath><clipPath id="ee543b0f3d"><path d="M 113.121094 91.808594 L 127.542969 91.808594 L 127.542969 110.832031 L 113.121094 110.832031 Z M 113.121094 91.808594 " clip-rule="nonzero"/></clipPath><clipPath id="297acc20f9"><path d="M 125.546875 95.855469 C 125.335938 95.609375 125.058594 95.375 124.707031 95.148438 C 124.351562 94.921875 123.964844 94.710938 123.527344 94.53125 C 123.089844 94.355469 122.609375 94.195312 122.097656 94.085938 C 121.582031 93.976562 121.046875 93.917969 120.480469 93.917969 C 119.027344 93.917969 117.964844 94.1875 117.292969 94.734375 C 116.621094 95.28125 116.285156 96.023438 116.285156 96.964844 C 116.285156 97.46875 116.375 97.890625 116.570312 98.226562 C 116.761719 98.5625 117.066406 98.839844 117.476562 99.085938 C 117.890625 99.328125 118.402344 99.53125 119.019531 99.699219 C 119.632812 99.867188 120.355469 100.0625 121.195312 100.253906 C 122.15625 100.464844 123.03125 100.707031 123.8125 100.976562 C 124.597656 101.246094 125.261719 101.582031 125.808594 101.988281 C 126.355469 102.390625 126.773438 102.878906 127.070312 103.460938 C 127.363281 104.039062 127.507812 104.746094 127.507812 105.589844 C 127.507812 106.480469 127.332031 107.253906 126.984375 107.910156 C 126.640625 108.566406 126.160156 109.105469 125.554688 109.535156 C 124.949219 109.964844 124.234375 110.273438 123.417969 110.476562 C 122.601562 110.679688 121.703125 110.78125 120.742188 110.78125 C 119.304688 110.78125 117.949219 110.550781 116.660156 110.105469 C 115.375 109.660156 114.171875 108.996094 113.121094 108.144531 L 114.246094 106.152344 C 114.523438 106.445312 114.886719 106.75 115.339844 107.042969 C 115.796875 107.339844 116.292969 107.609375 116.863281 107.84375 C 117.4375 108.078125 118.042969 108.273438 118.699219 108.425781 C 119.355469 108.574219 120.042969 108.644531 120.757812 108.644531 C 122.089844 108.644531 123.125 108.40625 123.855469 107.9375 C 124.585938 107.464844 124.957031 106.757812 124.957031 105.808594 C 124.957031 105.285156 124.839844 104.839844 124.605469 104.476562 C 124.367188 104.117188 124.023438 103.804688 123.570312 103.542969 C 123.117188 103.28125 122.550781 103.046875 121.878906 102.84375 C 121.207031 102.644531 120.441406 102.441406 119.582031 102.230469 C 118.640625 102.003906 117.804688 101.761719 117.082031 101.5 C 116.359375 101.238281 115.761719 100.917969 115.28125 100.558594 C 114.800781 100.195312 114.441406 99.742188 114.1875 99.21875 C 113.9375 98.699219 113.828125 98.058594 113.828125 97.316406 C 113.828125 96.425781 113.996094 95.636719 114.324219 94.953125 C 114.652344 94.273438 115.121094 93.691406 115.710938 93.21875 C 116.300781 92.75 117.023438 92.394531 117.847656 92.160156 C 118.671875 91.925781 119.566406 91.808594 120.523438 91.808594 C 121.785156 91.808594 122.921875 92 123.941406 92.386719 C 124.957031 92.773438 125.859375 93.289062 126.640625 93.933594 Z M 125.546875 95.855469 " clip-rule="nonzero"/></clipPath><clipPath id="8c364a6869"><path d="M 0.121094 0.808594 L 14.542969 0.808594 L 14.542969 19.832031 L 0.121094 19.832031 Z M 0.121094 0.808594 " clip-rule="nonzero"/></clipPath><clipPath id="670e37e030"><path d="M 12.546875 4.855469 C 12.335938 4.609375 12.058594 4.375 11.707031 4.148438 C 11.351562 3.921875 10.964844 3.710938 10.527344 3.53125 C 10.089844 3.355469 9.609375 3.195312 9.097656 3.085938 C 8.582031 2.976562 8.046875 2.917969 7.480469 2.917969 C 6.027344 2.917969 4.964844 3.1875 4.292969 3.734375 C 3.621094 4.28125 3.285156 5.023438 3.285156 5.964844 C 3.285156 6.46875 3.375 6.890625 3.570312 7.226562 C 3.761719 7.5625 4.066406 7.839844 4.476562 8.085938 C 4.890625 8.328125 5.402344 8.53125 6.019531 8.699219 C 6.632812 8.867188 7.355469 9.0625 8.195312 9.253906 C 9.15625 9.464844 10.03125 9.707031 10.8125 9.976562 C 11.597656 10.246094 12.261719 10.582031 12.808594 10.988281 C 13.355469 11.390625 13.773438 11.878906 14.070312 12.460938 C 14.363281 13.039062 14.507812 13.746094 14.507812 14.589844 C 14.507812 15.480469 14.332031 16.253906 13.984375 16.910156 C 13.640625 17.566406 13.160156 18.105469 12.554688 18.535156 C 11.949219 18.964844 11.234375 19.273438 10.417969 19.476562 C 9.601562 19.679688 8.703125 19.78125 7.742188 19.78125 C 6.304688 19.78125 4.949219 19.550781 3.660156 19.105469 C 2.375 18.660156 1.171875 17.996094 0.121094 17.144531 L 1.246094 15.152344 C 1.523438 15.445312 1.886719 15.75 2.339844 16.042969 C 2.796875 16.339844 3.292969 16.609375 3.863281 16.84375 C 4.4375 17.078125 5.042969 17.273438 5.699219 17.425781 C 6.355469 17.574219 7.042969 17.644531 7.757812 17.644531 C 9.089844 17.644531 10.125 17.40625 10.855469 16.9375 C 11.585938 16.464844 11.957031 15.757812 11.957031 14.808594 C 11.957031 14.285156 11.839844 13.839844 11.605469 13.476562 C 11.367188 13.117188 11.023438 12.804688 10.570312 12.542969 C 10.117188 12.28125 9.550781 12.046875 8.878906 11.84375 C 8.207031 11.644531 7.441406 11.441406 6.582031 11.230469 C 5.640625 11.003906 4.804688 10.761719 4.082031 10.5 C 3.359375 10.238281 2.761719 9.917969 2.28125 9.558594 C 1.800781 9.195312 1.441406 8.742188 1.1875 8.21875 C 0.9375 7.699219 0.828125 7.058594 0.828125 6.316406 C 0.828125 5.425781 0.996094 4.636719 1.324219 3.953125 C 1.652344 3.273438 2.121094 2.691406 2.710938 2.21875 C 3.300781 1.75 4.023438 1.394531 4.847656 1.160156 C 5.671875 0.925781 6.566406 0.808594 7.523438 0.808594 C 8.785156 0.808594 9.921875 1 10.941406 1.386719 C 11.957031 1.773438 12.859375 2.289062 13.640625 2.933594 Z M 12.546875 4.855469 " clip-rule="nonzero"/></clipPath><clipPath id="c12a810712"><rect x="0" width="15" y="0" height="20"/></clipPath><clipPath id="072e03f641"><path d="M 140.617188 91.9375 L 155.84375 91.9375 L 155.84375 94.042969 L 140.617188 94.042969 Z M 147.054688 94.042969 L 149.417969 94.042969 L 149.417969 110.582031 L 147.054688 110.582031 Z M 147.054688 94.042969 " clip-rule="nonzero"/></clipPath><clipPath id="4a25cca689"><path d="M 0.617188 0.9375 L 15.84375 0.9375 L 15.84375 3.042969 L 0.617188 3.042969 Z M 7.054688 3.042969 L 9.417969 3.042969 L 9.417969 19.582031 L 7.054688 19.582031 Z M 7.054688 3.042969 " clip-rule="nonzero"/></clipPath><clipPath id="208fb263c0"><rect x="0" width="16" y="0" height="20"/></clipPath><clipPath id="5bb8fa9536"><path d="M 170.082031 91.9375 L 186 91.9375 L 186 110.746094 L 170.082031 110.746094 Z M 170.082031 91.9375 " clip-rule="nonzero"/></clipPath><clipPath id="ff007dfbea"><path d="M 178.015625 108.589844 C 179.101562 108.589844 180.003906 108.378906 180.726562 107.957031 C 181.449219 107.539062 182.015625 106.992188 182.441406 106.316406 C 182.871094 105.644531 183.175781 104.871094 183.351562 104.003906 C 183.527344 103.136719 183.613281 102.253906 183.613281 101.363281 L 183.613281 91.9375 L 185.976562 91.9375 L 185.976562 101.371094 C 185.976562 102.632812 185.832031 103.828125 185.539062 104.953125 C 185.246094 106.082031 184.789062 107.074219 184.160156 107.933594 C 183.527344 108.792969 182.710938 109.472656 181.703125 109.96875 C 180.691406 110.464844 179.472656 110.71875 178.042969 110.71875 C 176.554688 110.71875 175.300781 110.457031 174.289062 109.925781 C 173.28125 109.398438 172.457031 108.707031 171.832031 107.839844 C 171.210938 106.972656 170.765625 105.972656 170.488281 104.84375 C 170.210938 103.71875 170.082031 102.558594 170.082031 101.371094 L 170.082031 91.9375 L 172.449219 91.9375 L 172.449219 101.371094 C 172.449219 102.296875 172.539062 103.195312 172.726562 104.0625 C 172.910156 104.929688 173.214844 105.695312 173.640625 106.359375 C 174.070312 107.023438 174.644531 107.5625 175.351562 107.976562 C 176.058594 108.386719 176.949219 108.589844 178.015625 108.589844 " clip-rule="nonzero"/></clipPath><clipPath id="a706a19a5f"><path d="M 0.0820312 0.9375 L 16 0.9375 L 16 19.746094 L 0.0820312 19.746094 Z M 0.0820312 0.9375 " clip-rule="nonzero"/></clipPath><clipPath id="ca2bca987e"><path d="M 8.015625 17.589844 C 9.101562 17.589844 10.003906 17.378906 10.726562 16.957031 C 11.449219 16.539062 12.015625 15.992188 12.441406 15.316406 C 12.871094 14.644531 13.175781 13.871094 13.351562 13.003906 C 13.527344 12.136719 13.613281 11.253906 13.613281 10.363281 L 13.613281 0.9375 L 15.976562 0.9375 L 15.976562 10.371094 C 15.976562 11.632812 15.832031 12.828125 15.539062 13.953125 C 15.246094 15.082031 14.789062 16.074219 14.160156 16.933594 C 13.527344 17.792969 12.710938 18.472656 11.703125 18.96875 C 10.691406 19.464844 9.472656 19.71875 8.042969 19.71875 C 6.554688 19.71875 5.300781 19.457031 4.289062 18.925781 C 3.28125 18.398438 2.457031 17.707031 1.832031 16.839844 C 1.210938 15.972656 0.765625 14.972656 0.488281 13.84375 C 0.210938 12.71875 0.0820312 11.558594 0.0820312 10.371094 L 0.0820312 0.9375 L 2.449219 0.9375 L 2.449219 10.371094 C 2.449219 11.296875 2.539062 12.195312 2.726562 13.0625 C 2.910156 13.929688 3.214844 14.695312 3.640625 15.359375 C 4.070312 16.023438 4.644531 16.5625 5.351562 16.976562 C 6.058594 17.386719 6.949219 17.589844 8.015625 17.589844 " clip-rule="nonzero"/></clipPath><clipPath id="f6ffdedace"><rect x="0" width="16" y="0" height="20"/></clipPath><clipPath id="82650ff7e3"><path d="M 201.992188 91.9375 L 217.460938 91.9375 L 217.460938 110.609375 L 201.992188 110.609375 Z M 201.992188 91.9375 " clip-rule="nonzero"/></clipPath><clipPath id="17e71be1a6"><path d="M 215.066406 101.234375 C 215.066406 100.183594 214.925781 99.214844 214.628906 98.332031 C 214.335938 97.449219 213.914062 96.691406 213.34375 96.0625 C 212.769531 95.429688 212.089844 94.933594 211.265625 94.578125 C 210.441406 94.226562 209.507812 94.042969 208.453125 94.042969 L 204.359375 94.042969 L 204.359375 108.480469 L 208.453125 108.480469 C 209.523438 108.480469 210.472656 108.292969 211.308594 107.925781 C 212.140625 107.554688 212.828125 107.050781 213.386719 106.402344 C 213.941406 105.753906 214.359375 104.988281 214.648438 104.105469 C 214.933594 103.222656 215.085938 102.261719 215.085938 101.226562 M 201.992188 110.582031 L 201.992188 91.9375 L 208.453125 91.9375 C 209.945312 91.9375 211.25 92.183594 212.375 92.671875 C 213.503906 93.15625 214.445312 93.824219 215.203125 94.664062 C 215.960938 95.503906 216.523438 96.488281 216.894531 97.617188 C 217.265625 98.746094 217.457031 99.949219 217.457031 101.226562 C 217.457031 102.648438 217.246094 103.925781 216.828125 105.070312 C 216.40625 106.214844 215.800781 107.199219 215.015625 108.015625 C 214.234375 108.832031 213.277344 109.464844 212.164062 109.910156 C 211.054688 110.355469 209.816406 110.582031 208.445312 110.582031 Z M 201.992188 110.582031 " clip-rule="nonzero"/></clipPath><clipPath id="1f667a19ef"><path d="M 0.992188 0.9375 L 16.460938 0.9375 L 16.460938 19.609375 L 0.992188 19.609375 Z M 0.992188 0.9375 " clip-rule="nonzero"/></clipPath><clipPath id="97ed6286d8"><path d="M 14.066406 10.234375 C 14.066406 9.183594 13.925781 8.214844 13.628906 7.332031 C 13.335938 6.449219 12.914062 5.691406 12.34375 5.0625 C 11.769531 4.429688 11.089844 3.933594 10.265625 3.578125 C 9.441406 3.226562 8.507812 3.042969 7.453125 3.042969 L 3.359375 3.042969 L 3.359375 17.480469 L 7.453125 17.480469 C 8.523438 17.480469 9.472656 17.292969 10.308594 16.925781 C 11.140625 16.554688 11.828125 16.050781 12.386719 15.402344 C 12.941406 14.753906 13.359375 13.988281 13.648438 13.105469 C 13.933594 12.222656 14.085938 11.261719 14.085938 10.226562 M 0.992188 19.582031 L 0.992188 0.9375 L 7.453125 0.9375 C 8.945312 0.9375 10.25 1.183594 11.375 1.671875 C 12.503906 2.15625 13.445312 2.824219 14.203125 3.664062 C 14.960938 4.503906 15.523438 5.488281 15.894531 6.617188 C 16.265625 7.746094 16.457031 8.949219 16.457031 10.226562 C 16.457031 11.648438 16.246094 12.925781 15.828125 14.070312 C 15.40625 15.214844 14.800781 16.199219 14.015625 17.015625 C 13.234375 17.832031 12.277344 18.464844 11.164062 18.910156 C 10.054688 19.355469 8.816406 19.582031 7.445312 19.582031 Z M 0.992188 19.582031 " clip-rule="nonzero"/></clipPath><clipPath id="70cd242ee7"><rect x="0" width="17" y="0" height="20"/></clipPath><clipPath id="5cf25238cb"><path d="M 232.617188 91.9375 L 234.980469 91.9375 L 234.980469 110.582031 L 232.617188 110.582031 Z M 232.617188 91.9375 " clip-rule="nonzero"/></clipPath><clipPath id="a83401adb5"><path d="M 0.617188 0.9375 L 2.980469 0.9375 L 2.980469 19.582031 L 0.617188 19.582031 Z M 0.617188 0.9375 " clip-rule="nonzero"/></clipPath><clipPath id="7e772a42bc"><rect x="0" width="3" y="0" height="20"/></clipPath><clipPath id="4c5e5e2a57"><path d="M 250 91.808594 L 267.625 91.808594 L 267.625 110.75 L 250 110.75 Z M 250 91.808594 " clip-rule="nonzero"/></clipPath><clipPath id="ceff000fb8"><path d="M 252.445312 101.265625 C 252.445312 102.207031 252.59375 103.125 252.90625 104.007812 C 253.21875 104.890625 253.648438 105.671875 254.203125 106.355469 C 254.757812 107.035156 255.4375 107.582031 256.222656 107.976562 C 257.003906 108.375 257.886719 108.585938 258.847656 108.585938 C 259.847656 108.585938 260.738281 108.367188 261.523438 107.9375 C 262.304688 107.507812 262.976562 106.953125 263.53125 106.253906 C 264.089844 105.554688 264.507812 104.78125 264.796875 103.90625 C 265.082031 103.03125 265.222656 102.148438 265.222656 101.257812 C 265.222656 100.3125 265.074219 99.398438 264.761719 98.511719 C 264.449219 97.628906 264.03125 96.855469 263.457031 96.183594 C 262.886719 95.507812 262.210938 94.972656 261.4375 94.566406 C 260.664062 94.164062 259.796875 93.960938 258.855469 93.960938 C 257.863281 93.960938 256.960938 94.171875 256.179688 94.59375 C 255.398438 95.011719 254.714844 95.558594 254.167969 96.242188 C 253.621094 96.921875 253.191406 97.707031 252.890625 98.582031 C 252.585938 99.457031 252.445312 100.347656 252.445312 101.257812 M 258.828125 110.714844 C 257.515625 110.714844 256.324219 110.445312 255.246094 109.914062 C 254.167969 109.382812 253.242188 108.667969 252.476562 107.785156 C 251.710938 106.902344 251.105469 105.890625 250.683594 104.757812 C 250.265625 103.621094 250.054688 102.449219 250.054688 101.265625 C 250.054688 100.019531 250.28125 98.832031 250.726562 97.6875 C 251.171875 96.542969 251.789062 95.542969 252.578125 94.667969 C 253.371094 93.792969 254.292969 93.101562 255.371094 92.582031 C 256.449219 92.058594 257.617188 91.808594 258.878906 91.808594 C 260.191406 91.808594 261.386719 92.085938 262.457031 92.632812 C 263.523438 93.179688 264.441406 93.910156 265.207031 94.804688 C 265.972656 95.695312 266.570312 96.703125 266.992188 97.832031 C 267.410156 98.960938 267.621094 100.113281 267.621094 101.289062 C 267.621094 102.535156 267.394531 103.722656 266.949219 104.855469 C 266.503906 105.992188 265.890625 106.992188 265.113281 107.867188 C 264.339844 108.742188 263.40625 109.425781 262.328125 109.9375 C 261.253906 110.453125 260.082031 110.714844 258.820312 110.714844 " clip-rule="nonzero"/></clipPath><clipPath id="5577854ff4"><path d="M 0 0.808594 L 17.625 0.808594 L 17.625 19.75 L 0 19.75 Z M 0 0.808594 " clip-rule="nonzero"/></clipPath><clipPath id="2fe101e676"><path d="M 2.445312 10.265625 C 2.445312 11.207031 2.59375 12.125 2.90625 13.007812 C 3.21875 13.890625 3.648438 14.671875 4.203125 15.355469 C 4.757812 16.035156 5.4375 16.582031 6.222656 16.976562 C 7.003906 17.375 7.886719 17.585938 8.847656 17.585938 C 9.847656 17.585938 10.738281 17.367188 11.523438 16.9375 C 12.304688 16.507812 12.976562 15.953125 13.53125 15.253906 C 14.089844 14.554688 14.507812 13.78125 14.796875 12.90625 C 15.082031 12.03125 15.222656 11.148438 15.222656 10.257812 C 15.222656 9.3125 15.074219 8.398438 14.761719 7.511719 C 14.449219 6.628906 14.03125 5.855469 13.457031 5.183594 C 12.886719 4.507812 12.210938 3.972656 11.4375 3.566406 C 10.664062 3.164062 9.796875 2.960938 8.855469 2.960938 C 7.863281 2.960938 6.960938 3.171875 6.179688 3.59375 C 5.398438 4.011719 4.714844 4.558594 4.167969 5.242188 C 3.621094 5.921875 3.191406 6.707031 2.890625 7.582031 C 2.585938 8.457031 2.445312 9.347656 2.445312 10.257812 M 8.828125 19.714844 C 7.515625 19.714844 6.324219 19.445312 5.246094 18.914062 C 4.167969 18.382812 3.242188 17.667969 2.476562 16.785156 C 1.710938 15.902344 1.105469 14.890625 0.683594 13.757812 C 0.265625 12.621094 0.0546875 11.449219 0.0546875 10.265625 C 0.0546875 9.019531 0.28125 7.832031 0.726562 6.6875 C 1.171875 5.542969 1.789062 4.542969 2.578125 3.667969 C 3.371094 2.792969 4.292969 2.101562 5.371094 1.582031 C 6.449219 1.058594 7.617188 0.808594 8.878906 0.808594 C 10.191406 0.808594 11.386719 1.085938 12.457031 1.632812 C 13.523438 2.179688 14.441406 2.910156 15.207031 3.804688 C 15.972656 4.695312 16.570312 5.703125 16.992188 6.832031 C 17.410156 7.960938 17.621094 9.113281 17.621094 10.289062 C 17.621094 11.535156 17.394531 12.722656 16.949219 13.855469 C 16.503906 14.992188 15.890625 15.992188 15.113281 16.867188 C 14.339844 17.742188 13.40625 18.425781 12.328125 18.9375 C 11.253906 19.453125 10.082031 19.714844 8.820312 19.714844 " clip-rule="nonzero"/></clipPath><clipPath id="2eb10b1c0d"><rect x="0" width="18" y="0" height="20"/></clipPath><clipPath id="b88af92466"><path d="M 27.882812 26 L 42 26 L 42 53.894531 L 27.882812 53.894531 Z M 27.882812 26 " clip-rule="nonzero"/></clipPath><clipPath id="fb4214c586"><path d="M 39.203125 33.726562 C 38.597656 35.460938 37.679688 36.730469 36.445312 37.546875 C 35.207031 38.363281 33.792969 39.042969 31.96875 39.296875 C 29.300781 39.667969 28.03125 39.734375 27.996094 40.070312 C 27.960938 40.464844 31.839844 40.902344 33.734375 41.535156 C 34.667969 41.847656 35.820312 42.503906 36.8125 43.386719 C 37.804688 44.269531 38.582031 45.546875 39.144531 47.207031 C 39.707031 48.863281 40.027344 51.074219 40.101562 53.835938 L 41.804688 53.835938 L 41.804688 26.136719 L 40.101562 26.136719 C 40.101562 29.460938 39.800781 31.992188 39.203125 33.726562 " clip-rule="nonzero"/></clipPath><clipPath id="099a8f7182"><path d="M 0.882812 0 L 15 0 L 15 27.894531 L 0.882812 27.894531 Z M 0.882812 0 " clip-rule="nonzero"/></clipPath><clipPath id="5295975da4"><path d="M 12.203125 7.726562 C 11.597656 9.460938 10.679688 10.730469 9.445312 11.546875 C 8.207031 12.363281 6.792969 13.042969 4.96875 13.296875 C 2.300781 13.667969 1.03125 13.734375 0.996094 14.070312 C 0.960938 14.464844 4.839844 14.902344 6.734375 15.535156 C 7.667969 15.847656 8.820312 16.503906 9.8125 17.386719 C 10.804688 18.269531 11.582031 19.546875 12.144531 21.207031 C 12.707031 22.863281 13.027344 25.074219 13.101562 27.835938 L 14.804688 27.835938 L 14.804688 0.136719 L 13.101562 0.136719 C 13.101562 3.460938 12.800781 5.992188 12.203125 7.726562 " clip-rule="nonzero"/></clipPath><clipPath id="c5eb0652c3"><rect x="0" width="15" y="0" height="28"/></clipPath><clipPath id="edfb389f2d"><path d="M 269 26 L 283 26 L 283 53.894531 L 269 53.894531 Z M 269 26 " clip-rule="nonzero"/></clipPath><clipPath id="a82d5e1b27"><path d="M 280.273438 33.726562 C 279.667969 35.460938 278.75 36.730469 277.511719 37.546875 C 276.277344 38.363281 274.863281 39.042969 273.039062 39.296875 C 270.371094 39.667969 269.097656 39.734375 269.066406 40.070312 C 269.03125 40.464844 272.910156 40.902344 274.804688 41.535156 C 275.738281 41.847656 276.890625 42.503906 277.882812 43.386719 C 278.875 44.269531 279.648438 45.546875 280.214844 47.207031 C 280.777344 48.863281 281.097656 51.074219 281.171875 53.835938 L 282.871094 53.835938 L 282.871094 26.136719 L 281.171875 26.136719 C 281.171875 29.460938 280.871094 31.992188 280.273438 33.726562 " clip-rule="nonzero"/></clipPath><clipPath id="595bfc050b"><path d="M 0 0 L 14 0 L 14 27.894531 L 0 27.894531 Z M 0 0 " clip-rule="nonzero"/></clipPath><clipPath id="74f3826195"><path d="M 11.273438 7.726562 C 10.667969 9.460938 9.75 10.730469 8.511719 11.546875 C 7.277344 12.363281 5.863281 13.042969 4.039062 13.296875 C 1.371094 13.667969 0.0976562 13.734375 0.0664062 14.070312 C 0.03125 14.464844 3.910156 14.902344 5.804688 15.535156 C 6.738281 15.847656 7.890625 16.503906 8.882812 17.386719 C 9.875 18.269531 10.648438 19.546875 11.214844 21.207031 C 11.777344 22.863281 12.097656 25.074219 12.171875 27.835938 L 13.871094 27.835938 L 13.871094 0.136719 L 12.171875 0.136719 C 12.171875 3.460938 11.871094 5.992188 11.273438 7.726562 " clip-rule="nonzero"/></clipPath><clipPath id="900b498251"><rect x="0" width="14" y="0" height="28"/></clipPath><clipPath id="8717e8d517"><path d="M 4.425781 5.375 L 28.523438 5.375 L 28.523438 76.707031 L 4.425781 76.707031 Z M 4.425781 5.375 " clip-rule="nonzero"/></clipPath><clipPath id="00bae54b13"><path d="M 21.9375 5.667969 L 4.453125 5.667969 L 4.453125 7.46875 L 9.652344 7.46875 L 9.652344 74.625 L 4.453125 74.625 L 4.453125 76.425781 L 28.222656 76.425781 L 28.222656 74.625 L 21.964844 74.625 Z M 21.9375 5.667969 " clip-rule="nonzero"/></clipPath><clipPath id="76e1c73dc7"><path d="M 0.425781 0.519531 L 24.359375 0.519531 L 24.359375 71.558594 L 0.425781 71.558594 Z M 0.425781 0.519531 " clip-rule="nonzero"/></clipPath><clipPath id="6f7b907f9d"><path d="M 17.9375 0.667969 L 0.453125 0.667969 L 0.453125 2.46875 L 5.652344 2.46875 L 5.652344 69.625 L 0.453125 69.625 L 0.453125 71.425781 L 24.222656 71.425781 L 24.222656 69.625 L 17.964844 69.625 Z M 17.9375 0.667969 " clip-rule="nonzero"/></clipPath><clipPath id="89133e64c6"><rect x="0" width="25" y="0" height="72"/></clipPath><clipPath id="b50b1b6f24"><path d="M 35 5.375 L 53.589844 5.375 L 53.589844 27.222656 L 35 27.222656 Z M 35 5.375 " clip-rule="nonzero"/></clipPath><clipPath id="c7b96427a7"><path d="M 53.472656 5.667969 L 35.25 5.667969 C 35.417969 6.332031 37.394531 7.558594 39.734375 7.746094 C 42.105469 7.929688 44.152344 8.542969 45.882812 9.605469 C 47.617188 10.664062 48.980469 12.355469 49.964844 14.660156 C 50.949219 16.96875 51.707031 22.546875 51.664062 24.394531 C 51.621094 26.246094 53.574219 27.003906 53.574219 27.003906 Z M 53.472656 5.667969 " clip-rule="nonzero"/></clipPath><clipPath id="64fb7aad2e"><path d="M 0.078125 0.519531 L 18.589844 0.519531 L 18.589844 22.121094 L 0.078125 22.121094 Z M 0.078125 0.519531 " clip-rule="nonzero"/></clipPath><clipPath id="f98c1b1d38"><path d="M 18.472656 0.667969 L 0.25 0.667969 C 0.417969 1.332031 2.394531 2.558594 4.734375 2.746094 C 7.105469 2.929688 9.152344 3.542969 10.882812 4.605469 C 12.617188 5.664062 13.980469 7.355469 14.964844 9.660156 C 15.949219 11.96875 16.707031 17.546875 16.664062 19.394531 C 16.621094 21.246094 18.574219 22.003906 18.574219 22.003906 Z M 18.472656 0.667969 " clip-rule="nonzero"/></clipPath><clipPath id="c185456b8b"><rect x="0" width="19" y="0" height="23"/></clipPath><clipPath id="ebfde0fe9e"><path d="M 59.695312 4.410156 L 84.4375 4.410156 L 84.4375 77.671875 L 59.695312 77.671875 Z M 59.695312 4.410156 " clip-rule="nonzero"/></clipPath><clipPath id="416f5cda5c"><path d="M 77.367188 69.601562 C 74.902344 65.355469 73.960938 60.105469 73.3125 55.367188 C 72.957031 52.785156 72.730469 50.242188 72.621094 47.726562 C 72.511719 45.210938 72.460938 42.941406 72.460938 40.886719 C 72.460938 38.910156 72.53125 36.664062 72.671875 34.148438 C 72.816406 31.632812 73.078125 29.089844 73.472656 26.507812 C 73.867188 23.925781 74.390625 21.417969 75.0625 18.976562 C 75.734375 16.539062 76.578125 14.308594 77.761719 12.398438 C 80.574219 7.90625 84.089844 5.230469 84.132812 4.582031 C 81.574219 5.027344 79.125 5.980469 76.804688 7.460938 C 73.480469 9.578125 70.5625 12.339844 68.054688 15.730469 C 65.546875 19.121094 63.5625 22.984375 62.113281 27.289062 C 60.667969 31.597656 59.933594 35.957031 59.933594 40.339844 C 59.933594 44.941406 60.609375 49.460938 61.953125 53.917969 C 63.300781 58.378906 65.175781 62.375 67.574219 65.910156 C 69.972656 69.441406 72.875 72.296875 76.273438 74.449219 C 78.707031 75.996094 81.332031 76.980469 84.132812 77.417969 C 84.105469 76.832031 82.828125 75.9375 82.449219 75.578125 C 81.304688 74.457031 80.144531 73.347656 79.117188 72.117188 C 78.460938 71.328125 77.871094 70.488281 77.359375 69.59375 " clip-rule="nonzero"/></clipPath><clipPath id="d279d507c8"><path d="M 0.800781 0.558594 L 25.28125 0.558594 L 25.28125 73.519531 L 0.800781 73.519531 Z M 0.800781 0.558594 " clip-rule="nonzero"/></clipPath><clipPath id="cfd8d84ec4"><path d="M 18.367188 65.601562 C 15.902344 61.355469 14.960938 56.105469 14.3125 51.367188 C 13.957031 48.785156 13.730469 46.242188 13.621094 43.726562 C 13.511719 41.210938 13.460938 38.941406 13.460938 36.886719 C 13.460938 34.910156 13.53125 32.664062 13.671875 30.148438 C 13.816406 27.632812 14.078125 25.089844 14.472656 22.507812 C 14.867188 19.925781 15.390625 17.417969 16.0625 14.976562 C 16.734375 12.539062 17.578125 10.308594 18.761719 8.398438 C 21.574219 3.90625 25.089844 1.230469 25.132812 0.582031 C 22.574219 1.027344 20.125 1.980469 17.804688 3.460938 C 14.480469 5.578125 11.5625 8.339844 9.054688 11.730469 C 6.546875 15.121094 4.5625 18.984375 3.113281 23.289062 C 1.667969 27.597656 0.933594 31.957031 0.933594 36.339844 C 0.933594 40.941406 1.609375 45.460938 2.953125 49.917969 C 4.300781 54.378906 6.175781 58.375 8.574219 61.910156 C 10.972656 65.441406 13.875 68.296875 17.273438 70.449219 C 19.707031 71.996094 22.332031 72.980469 25.132812 73.417969 C 25.105469 72.832031 23.828125 71.9375 23.449219 71.578125 C 22.304688 70.457031 21.144531 69.347656 20.117188 68.117188 C 19.460938 67.328125 18.871094 66.488281 18.359375 65.59375 " clip-rule="nonzero"/></clipPath><clipPath id="ae4f999e7d"><rect x="0" width="26" y="0" height="74"/></clipPath><clipPath id="70b1981403"><path d="M 90 4.410156 L 115.285156 4.410156 L 115.285156 77.671875 L 90 77.671875 Z M 90 4.410156 " clip-rule="nonzero"/></clipPath><clipPath id="bcc5a33aac"><path d="M 112.992188 27.886719 C 111.644531 23.46875 109.753906 19.507812 107.3125 16.007812 C 104.871094 12.507812 101.96875 9.679688 98.613281 7.519531 C 95.960938 5.820312 93.09375 4.800781 90.023438 4.4375 C 90.089844 5.035156 96.476562 8.125 99.460938 19.457031 C 100.125 21.988281 100.539062 24.546875 100.890625 27.097656 C 101.246094 29.644531 101.472656 32.121094 101.582031 34.527344 C 101.691406 36.933594 101.742188 39.019531 101.742188 40.785156 C 101.742188 42.761719 101.707031 45.007812 101.632812 47.527344 C 101.558594 50.042969 101.378906 52.582031 101.101562 55.164062 C 100.582031 59.960938 99.730469 64.949219 97.433594 69.300781 C 96.347656 71.363281 94.816406 72.992188 93.125 74.574219 C 92.527344 75.140625 90.113281 76.664062 90.039062 77.554688 C 93.101562 77.199219 95.960938 76.199219 98.613281 74.523438 C 101.96875 72.40625 104.871094 69.628906 107.3125 66.195312 C 109.753906 62.761719 111.644531 58.875 112.992188 54.527344 C 114.335938 50.175781 115.011719 45.734375 115.011719 41.207031 C 115.011719 36.746094 114.335938 32.3125 112.992188 27.886719 " clip-rule="nonzero"/></clipPath><clipPath id="70edea6a4f"><path d="M 0 0.410156 L 25.238281 0.410156 L 25.238281 73.671875 L 0 73.671875 Z M 0 0.410156 " clip-rule="nonzero"/></clipPath><clipPath id="6084d4c6c8"><path d="M 22.992188 23.886719 C 21.644531 19.46875 19.753906 15.507812 17.3125 12.007812 C 14.871094 8.507812 11.96875 5.679688 8.613281 3.519531 C 5.960938 1.820312 3.09375 0.800781 0.0234375 0.4375 C 0.0898438 1.035156 6.476562 4.125 9.460938 15.457031 C 10.125 17.988281 10.539062 20.546875 10.890625 23.097656 C 11.246094 25.644531 11.472656 28.121094 11.582031 30.527344 C 11.691406 32.933594 11.742188 35.019531 11.742188 36.785156 C 11.742188 38.761719 11.707031 41.007812 11.632812 43.527344 C 11.558594 46.042969 11.378906 48.582031 11.101562 51.164062 C 10.582031 55.960938 9.730469 60.949219 7.433594 65.300781 C 6.347656 67.363281 4.816406 68.992188 3.125 70.574219 C 2.527344 71.140625 0.113281 72.664062 0.0390625 73.554688 C 3.101562 73.199219 5.960938 72.199219 8.613281 70.523438 C 11.96875 68.40625 14.871094 65.628906 17.3125 62.195312 C 19.753906 58.761719 21.644531 54.875 22.992188 50.527344 C 24.335938 46.175781 25.011719 41.734375 25.011719 37.207031 C 25.011719 32.746094 24.335938 28.3125 22.992188 23.886719 " clip-rule="nonzero"/></clipPath><clipPath id="07067b71d8"><rect x="0" width="26" y="0" height="74"/></clipPath><clipPath id="fd715bb661"><path d="M 120.425781 5.375 L 171.839844 5.375 L 171.839844 77.996094 L 120.425781 77.996094 Z M 120.425781 5.375 " clip-rule="nonzero"/></clipPath><clipPath id="c8bf6b307f"><path d="M 163.652344 73.828125 C 161.351562 74.996094 158.578125 75.578125 155.320312 75.578125 C 152.351562 75.578125 149.910156 75.011719 148 73.878906 C 146.089844 72.742188 144.585938 71.191406 143.492188 69.207031 C 142.398438 67.222656 141.648438 64.875 141.261719 62.148438 C 140.875 59.421875 140.679688 56.4375 140.679688 53.1875 L 140.679688 7.46875 L 147.472656 7.46875 L 147.472656 5.660156 L 120.632812 5.660156 L 120.632812 7.46875 L 127.3125 7.46875 L 127.3125 59.777344 C 127.3125 60.980469 127.378906 61.972656 127.523438 62.746094 C 127.941406 66.003906 129.09375 68.617188 130.972656 70.597656 C 132.847656 72.574219 135.035156 74.113281 137.550781 75.214844 C 140.066406 76.316406 142.71875 77.03125 145.511719 77.386719 C 148.304688 77.738281 150.871094 77.914062 153.199219 77.914062 C 160.628906 77.914062 166.199219 75.957031 169.910156 72.027344 C 170.609375 71.285156 171.238281 70.460938 171.804688 69.535156 C 170.996094 69.519531 165.949219 72.664062 163.652344 73.828125 " clip-rule="nonzero"/></clipPath><clipPath id="2053f96f2c"><path d="M 0.519531 0.519531 L 51.839844 0.519531 L 51.839844 72.996094 L 0.519531 72.996094 Z M 0.519531 0.519531 " clip-rule="nonzero"/></clipPath><clipPath id="f680e951b3"><path d="M 43.652344 68.828125 C 41.351562 69.996094 38.578125 70.578125 35.320312 70.578125 C 32.351562 70.578125 29.910156 70.011719 28 68.878906 C 26.089844 67.742188 24.585938 66.191406 23.492188 64.207031 C 22.398438 62.222656 21.648438 59.875 21.261719 57.148438 C 20.875 54.421875 20.679688 51.4375 20.679688 48.1875 L 20.679688 2.46875 L 27.472656 2.46875 L 27.472656 0.660156 L 0.632812 0.660156 L 0.632812 2.46875 L 7.3125 2.46875 L 7.3125 54.777344 C 7.3125 55.980469 7.378906 56.972656 7.523438 57.746094 C 7.941406 61.003906 9.09375 63.617188 10.972656 65.597656 C 12.847656 67.574219 15.035156 69.113281 17.550781 70.214844 C 20.066406 71.316406 22.71875 72.03125 25.511719 72.386719 C 28.304688 72.738281 30.871094 72.914062 33.199219 72.914062 C 40.628906 72.914062 46.199219 70.957031 49.910156 67.027344 C 50.609375 66.285156 51.238281 65.460938 51.804688 64.535156 C 50.996094 64.519531 45.949219 67.664062 43.652344 68.828125 " clip-rule="nonzero"/></clipPath><clipPath id="94a3e0199b"><rect x="0" width="52" y="0" height="73"/></clipPath><clipPath id="d87c2124a4"><path d="M 163.484375 5.375 L 184.371094 5.375 L 184.371094 19.832031 L 163.484375 19.832031 Z M 163.484375 5.375 " clip-rule="nonzero"/></clipPath><clipPath id="14ecc187a4"><path d="M 163.492188 5.667969 L 163.492188 7.46875 C 163.988281 7.46875 164.425781 7.449219 164.820312 7.417969 C 165.214844 7.382812 165.578125 7.367188 165.929688 7.367188 C 167.277344 7.300781 168.402344 7.300781 169.320312 7.367188 C 170.238281 7.433594 170.980469 7.753906 171.550781 8.324219 C 172.125 8.898438 172.519531 9.773438 172.769531 10.976562 C 173.023438 12.179688 173.789062 19.566406 174.132812 19.523438 C 174.578125 19.472656 175.5625 12.28125 175.742188 11.078125 C 175.917969 9.875 176.269531 9.007812 176.800781 8.476562 C 177.332031 7.949219 178.039062 7.644531 178.921875 7.578125 C 179.804688 7.511719 180.957031 7.46875 182.371094 7.46875 L 184.070312 7.46875 L 184.070312 5.667969 Z M 163.492188 5.667969 " clip-rule="nonzero"/></clipPath><clipPath id="e5d7e8a766"><path d="M 0.484375 0.519531 L 21.121094 0.519531 L 21.121094 14.679688 L 0.484375 14.679688 Z M 0.484375 0.519531 " clip-rule="nonzero"/></clipPath><clipPath id="ef89bd1770"><path d="M 0.492188 0.667969 L 0.492188 2.46875 C 0.988281 2.46875 1.425781 2.449219 1.820312 2.417969 C 2.214844 2.382812 2.578125 2.367188 2.929688 2.367188 C 4.277344 2.300781 5.402344 2.300781 6.320312 2.367188 C 7.238281 2.433594 7.980469 2.753906 8.550781 3.324219 C 9.125 3.898438 9.519531 4.773438 9.769531 5.976562 C 10.023438 7.179688 10.789062 14.566406 11.132812 14.523438 C 11.578125 14.472656 12.5625 7.28125 12.742188 6.078125 C 12.917969 4.875 13.269531 4.007812 13.800781 3.476562 C 14.332031 2.949219 15.039062 2.644531 15.921875 2.578125 C 16.804688 2.511719 17.957031 2.46875 19.371094 2.46875 L 21.070312 2.46875 L 21.070312 0.667969 Z M 0.492188 0.667969 " clip-rule="nonzero"/></clipPath><clipPath id="378733217d"><rect x="0" width="22" y="0" height="15"/></clipPath><clipPath id="7c27f90095"><path d="M 229.679688 51.644531 L 238 51.644531 L 238 77.351562 L 229.679688 77.351562 Z M 229.679688 51.644531 " clip-rule="nonzero"/></clipPath><clipPath id="209edad08f"><path d="M 234.519531 59.238281 C 231.800781 69.175781 229.554688 72.285156 229.699219 72.800781 C 229.699219 72.816406 229.707031 72.84375 229.707031 72.859375 C 230.480469 72.296875 231.164062 71.839844 231.757812 71.488281 C 232.355469 71.132812 232.835938 70.957031 233.191406 70.957031 C 233.828125 70.957031 234.335938 71.167969 234.730469 71.597656 C 235.125 72.027344 235.417969 72.539062 235.628906 73.136719 C 235.839844 73.734375 235.984375 74.390625 236.050781 75.097656 C 236.117188 75.804688 236.160156 76.476562 236.160156 77.117188 L 237.75 77.117188 L 237.75 51.867188 L 236.160156 51.867188 C 235.875 54.128906 235.25 56.5625 234.519531 59.238281 " clip-rule="nonzero"/></clipPath><clipPath id="a8c53e3583"><path d="M 0.679688 0.839844 L 8.878906 0.839844 L 8.878906 26.28125 L 0.679688 26.28125 Z M 0.679688 0.839844 " clip-rule="nonzero"/></clipPath><clipPath id="f9db0b2012"><path d="M 5.519531 8.238281 C 2.800781 18.175781 0.554688 21.285156 0.699219 21.800781 C 0.699219 21.816406 0.707031 21.84375 0.707031 21.859375 C 1.480469 21.296875 2.164062 20.839844 2.757812 20.488281 C 3.355469 20.132812 3.835938 19.957031 4.191406 19.957031 C 4.828125 19.957031 5.335938 20.167969 5.730469 20.597656 C 6.125 21.027344 6.417969 21.539062 6.628906 22.136719 C 6.839844 22.734375 6.984375 23.390625 7.050781 24.097656 C 7.117188 24.804688 7.160156 25.476562 7.160156 26.117188 L 8.75 26.117188 L 8.75 0.867188 L 7.160156 0.867188 C 6.875 3.128906 6.25 5.5625 5.519531 8.238281 " clip-rule="nonzero"/></clipPath><clipPath id="90d1012e93"><rect x="0" width="9" y="0" height="27"/></clipPath><clipPath id="3fe4d74083"><path d="M 189 5.050781 L 226.144531 5.050781 L 226.144531 78.316406 L 189 78.316406 Z M 189 5.050781 " clip-rule="nonzero"/></clipPath><clipPath id="8fea6c479a"><path d="M 212.078125 71.757812 C 209.722656 69.847656 207.941406 67.296875 206.667969 64.226562 C 205.398438 61.15625 204.550781 57.757812 204.121094 54.039062 C 203.691406 50.320312 203.480469 46.667969 203.480469 43.058594 C 203.480469 41.148438 203.53125 38.933594 203.640625 36.429688 C 203.75 33.921875 203.996094 31.371094 204.382812 28.789062 C 204.769531 26.207031 205.296875 23.664062 205.972656 21.148438 C 206.644531 18.632812 207.542969 16.394531 208.679688 14.410156 C 209.816406 12.421875 211.164062 10.800781 212.820312 9.636719 C 216.589844 7.003906 222.152344 6.355469 221.730469 6.1875 C 220.242188 5.589844 218.550781 5.289062 216.640625 5.289062 C 212.257812 5.289062 208.359375 6.347656 204.96875 8.46875 C 201.578125 10.589844 198.710938 13.398438 196.378906 16.90625 C 194.050781 20.417969 192.257812 24.4375 191.019531 29.007812 C 189.785156 33.574219 189.160156 38.253906 189.160156 43.066406 C 189.160156 47.878906 189.800781 52.421875 191.070312 56.695312 C 192.339844 60.96875 194.148438 64.707031 196.480469 67.886719 C 198.8125 71.066406 201.664062 73.597656 205.019531 75.476562 C 208.378906 77.351562 212.148438 78.285156 216.320312 78.285156 C 219.359375 78.285156 222 77.664062 224.230469 76.425781 C 224.40625 76.335938 225.851562 75.449219 226.03125 75.359375 C 225.902344 75.257812 216.523438 75.359375 212.078125 71.757812 " clip-rule="nonzero"/></clipPath><clipPath id="2bfc9ee29d"><path d="M 0.160156 0.28125 L 37.121094 0.28125 L 37.121094 73.316406 L 0.160156 73.316406 Z M 0.160156 0.28125 " clip-rule="nonzero"/></clipPath><clipPath id="b9bc1f0295"><path d="M 23.078125 66.757812 C 20.722656 64.847656 18.941406 62.296875 17.667969 59.226562 C 16.398438 56.15625 15.550781 52.757812 15.121094 49.039062 C 14.691406 45.320312 14.480469 41.667969 14.480469 38.058594 C 14.480469 36.148438 14.53125 33.933594 14.640625 31.429688 C 14.75 28.921875 14.996094 26.371094 15.382812 23.789062 C 15.769531 21.207031 16.296875 18.664062 16.972656 16.148438 C 17.644531 13.632812 18.542969 11.394531 19.679688 9.410156 C 20.816406 7.421875 22.164062 5.800781 23.820312 4.636719 C 27.589844 2.003906 33.152344 1.355469 32.730469 1.1875 C 31.242188 0.589844 29.550781 0.289062 27.640625 0.289062 C 23.257812 0.289062 19.359375 1.347656 15.96875 3.46875 C 12.578125 5.589844 9.710938 8.398438 7.378906 11.90625 C 5.050781 15.417969 3.257812 19.4375 2.019531 24.007812 C 0.785156 28.574219 0.160156 33.253906 0.160156 38.066406 C 0.160156 42.878906 0.800781 47.421875 2.070312 51.695312 C 3.339844 55.96875 5.148438 59.707031 7.480469 62.886719 C 9.8125 66.066406 12.664062 68.597656 16.019531 70.476562 C 19.378906 72.351562 23.148438 73.285156 27.320312 73.285156 C 30.359375 73.285156 33 72.664062 35.230469 71.425781 C 35.40625 71.335938 36.851562 70.449219 37.03125 70.359375 C 36.902344 70.257812 27.523438 70.359375 23.078125 66.757812 " clip-rule="nonzero"/></clipPath><clipPath id="46046ceb8f"><rect x="0" width="38" y="0" height="74"/></clipPath><clipPath id="e8f08632eb"><path d="M 225 7.621094 L 238 7.621094 L 238 29.792969 L 225 29.792969 Z M 225 7.621094 " clip-rule="nonzero"/></clipPath><clipPath id="7ef5bee82c"><path d="M 235.847656 8.15625 C 235.707031 9.152344 235.417969 9.875 235 10.328125 C 234.578125 10.78125 233.9375 11.019531 233.089844 11.019531 C 231.820312 11.019531 230.613281 10.714844 229.480469 10.117188 C 229.117188 9.925781 225.441406 7.972656 225.070312 7.769531 C 225.070312 7.789062 230.238281 13.308594 231.078125 14.519531 C 234.148438 18.945312 233.9375 19.304688 234.644531 21.949219 C 235.359375 24.605469 235.488281 27.039062 235.628906 29.585938 L 237.75 29.585938 L 237.75 8.15625 Z M 235.847656 8.15625 " clip-rule="nonzero"/></clipPath><clipPath id="1f6e8b3d31"><path d="M 0 0.679688 L 12.878906 0.679688 L 12.878906 22.761719 L 0 22.761719 Z M 0 0.679688 " clip-rule="nonzero"/></clipPath><clipPath id="c69aef1d21"><path d="M 10.847656 1.15625 C 10.707031 2.152344 10.417969 2.875 10 3.328125 C 9.578125 3.78125 8.9375 4.019531 8.089844 4.019531 C 6.820312 4.019531 5.613281 3.714844 4.480469 3.117188 C 4.117188 2.925781 0.441406 0.972656 0.0703125 0.769531 C 0.0703125 0.789062 5.238281 6.308594 6.078125 7.519531 C 9.148438 11.945312 8.9375 12.304688 9.644531 14.949219 C 10.359375 17.605469 10.488281 20.039062 10.628906 22.585938 L 12.75 22.585938 L 12.75 1.15625 Z M 10.847656 1.15625 " clip-rule="nonzero"/></clipPath><clipPath id="0f25fec16e"><rect x="0" width="13" y="0" height="23"/></clipPath><clipPath id="f94114f404"><path d="M 246.066406 5.375 L 264.382812 5.375 L 264.382812 76.707031 L 246.066406 76.707031 Z M 246.066406 5.375 " clip-rule="nonzero"/></clipPath><clipPath id="67a1602b4f"><path d="M 264.277344 76.417969 L 264.277344 5.675781 L 246.136719 5.667969 L 246.136719 7.46875 L 251.449219 7.46875 L 251.449219 74.625 L 246.136719 74.625 L 246.136719 76.425781 Z M 264.277344 76.417969 " clip-rule="nonzero"/></clipPath><clipPath id="11d20aaa98"><path d="M 0.0664062 0.519531 L 18.28125 0.519531 L 18.28125 71.558594 L 0.0664062 71.558594 Z M 0.0664062 0.519531 " clip-rule="nonzero"/></clipPath><clipPath id="584cba8e68"><path d="M 18.277344 71.417969 L 18.277344 0.675781 L 0.136719 0.667969 L 0.136719 2.46875 L 5.449219 2.46875 L 5.449219 69.625 L 0.136719 69.625 L 0.136719 71.425781 Z M 18.277344 71.417969 " clip-rule="nonzero"/></clipPath><clipPath id="423bdbdab1"><rect x="0" width="19" y="0" height="72"/></clipPath><clipPath id="73d1ea343b"><path d="M 280.128906 55.5 L 299.40625 55.5 L 299.40625 76.707031 L 280.128906 76.707031 Z M 280.128906 55.5 " clip-rule="nonzero"/></clipPath><clipPath id="2f561228ed"><path d="M 297.597656 55.527344 C 297.597656 60.265625 296.992188 63.90625 295.796875 66.457031 C 294.601562 69.003906 292.96875 70.855469 290.917969 72.027344 C 288.863281 73.195312 280.921875 75.835938 280.257812 76.425781 L 299.40625 76.425781 L 299.40625 55.527344 Z M 297.597656 55.527344 " clip-rule="nonzero"/></clipPath><clipPath id="4d310f2e8d"><path d="M 0.128906 0.5 L 19.40625 0.5 L 19.40625 21.558594 L 0.128906 21.558594 Z M 0.128906 0.5 " clip-rule="nonzero"/></clipPath><clipPath id="6b4f0632c3"><path d="M 17.597656 0.527344 C 17.597656 5.265625 16.992188 8.90625 15.796875 11.457031 C 14.601562 14.003906 12.96875 15.855469 10.917969 17.027344 C 8.863281 18.195312 0.921875 20.835938 0.257812 21.425781 L 19.40625 21.425781 L 19.40625 0.527344 Z M 17.597656 0.527344 " clip-rule="nonzero"/></clipPath><clipPath id="42f2231a40"><rect x="0" width="20" y="0" height="22"/></clipPath><clipPath id="2e4106c859"><path d="M 280.128906 5.375 L 299.40625 5.375 L 299.40625 26.582031 L 280.128906 26.582031 Z M 280.128906 5.375 " clip-rule="nonzero"/></clipPath><clipPath id="0652208563"><path d="M 297.496094 26.558594 C 297.496094 21.820312 296.890625 18.179688 295.695312 15.628906 C 294.5 13.078125 292.867188 11.230469 290.816406 10.058594 C 288.761719 8.890625 280.820312 6.246094 280.15625 5.660156 L 299.304688 5.660156 L 299.304688 26.558594 Z M 297.496094 26.558594 " clip-rule="nonzero"/></clipPath><clipPath id="c3bbeb3487"><path d="M 0.128906 0.519531 L 19.320312 0.519531 L 19.320312 21.582031 L 0.128906 21.582031 Z M 0.128906 0.519531 " clip-rule="nonzero"/></clipPath><clipPath id="a9e2c573de"><path d="M 17.496094 21.558594 C 17.496094 16.820312 16.890625 13.179688 15.695312 10.628906 C 14.5 8.078125 12.867188 6.230469 10.816406 5.058594 C 8.761719 3.890625 0.820312 1.246094 0.15625 0.660156 L 19.304688 0.660156 L 19.304688 21.558594 Z M 17.496094 21.558594 " clip-rule="nonzero"/></clipPath><clipPath id="c08c1c07be"><rect x="0" width="20" y="0" height="22"/></clipPath><clipPath id="89f1ab97ef"><path d="M 307.761719 51.003906 L 326 51.003906 L 326 77.351562 L 307.761719 77.351562 Z M 307.761719 51.003906 " clip-rule="nonzero"/></clipPath><clipPath id="1a93c01446"><path d="M 325.816406 76.863281 C 325.671875 76.796875 317.992188 72.683594 314.828125 68.578125 C 313.210938 66.472656 312.019531 63.921875 311.167969 60.988281 C 310.320312 58.050781 309.753906 54.777344 309.46875 51.175781 L 307.878906 51.175781 L 307.878906 77.175781 L 309.46875 77.175781 C 309.535156 76.324219 309.738281 75.339844 310.050781 74.207031 C 310.359375 73.070312 310.914062 72.503906 311.691406 72.503906 C 312.398438 72.503906 313.121094 72.664062 313.867188 72.984375 C 314.617188 73.304688 315.410156 73.707031 316.257812 74.207031 C 317.488281 74.820312 318.890625 75.441406 320.472656 76.082031 C 323.621094 77.074219 324.050781 76.980469 325.816406 76.871094 " clip-rule="nonzero"/></clipPath><clipPath id="13d4175433"><path d="M 0.761719 0.121094 L 18.960938 0.121094 L 18.960938 26.28125 L 0.761719 26.28125 Z M 0.761719 0.121094 " clip-rule="nonzero"/></clipPath><clipPath id="fed5c6429d"><path d="M 18.816406 25.863281 C 18.671875 25.796875 10.992188 21.683594 7.828125 17.578125 C 6.210938 15.472656 5.019531 12.921875 4.167969 9.988281 C 3.320312 7.050781 2.753906 3.777344 2.46875 0.175781 L 0.878906 0.175781 L 0.878906 26.175781 L 2.46875 26.175781 C 2.535156 25.324219 2.738281 24.339844 3.050781 23.207031 C 3.359375 22.070312 3.914062 21.503906 4.691406 21.503906 C 5.398438 21.503906 6.121094 21.664062 6.867188 21.984375 C 7.617188 22.304688 8.410156 22.707031 9.257812 23.207031 C 10.488281 23.820312 11.890625 24.441406 13.472656 25.082031 C 16.621094 26.074219 17.050781 25.980469 18.816406 25.871094 " clip-rule="nonzero"/></clipPath><clipPath id="e84d6d0d9e"><rect x="0" width="19" y="0" height="27"/></clipPath><clipPath id="9d04a9b876"><path d="M 327.042969 5.375 L 345.359375 5.375 L 345.359375 31.722656 L 327.042969 31.722656 Z M 327.042969 5.375 " clip-rule="nonzero"/></clipPath><clipPath id="0e90135e97"><path d="M 327.355469 5.917969 C 327.5 5.988281 335.179688 10.101562 338.34375 14.207031 C 339.960938 16.3125 341.15625 18.859375 342.003906 21.796875 C 342.855469 24.734375 343.417969 28.003906 343.703125 31.605469 L 345.292969 31.605469 L 345.292969 5.609375 L 343.703125 5.609375 C 343.636719 6.457031 343.433594 7.441406 343.125 8.578125 C 342.8125 9.714844 342.257812 10.277344 341.484375 10.277344 C 340.777344 10.277344 340.050781 10.117188 339.304688 9.796875 C 338.554688 9.480469 337.765625 9.074219 336.914062 8.578125 C 335.6875 7.964844 334.28125 7.339844 332.699219 6.703125 C 329.550781 5.710938 329.121094 5.800781 327.355469 5.910156 " clip-rule="nonzero"/></clipPath><clipPath id="f56b8cff5c"><path d="M 0.160156 0.519531 L 18.359375 0.519531 L 18.359375 26.679688 L 0.160156 26.679688 Z M 0.160156 0.519531 " clip-rule="nonzero"/></clipPath><clipPath id="05c8a90d57"><path d="M 0.355469 0.917969 C 0.5 0.988281 8.179688 5.101562 11.34375 9.207031 C 12.960938 11.3125 14.15625 13.859375 15.003906 16.796875 C 15.855469 19.734375 16.417969 23.003906 16.703125 26.605469 L 18.292969 26.605469 L 18.292969 0.609375 L 16.703125 0.609375 C 16.636719 1.457031 16.433594 2.441406 16.125 3.578125 C 15.8125 4.714844 15.257812 5.277344 14.484375 5.277344 C 13.777344 5.277344 13.050781 5.117188 12.304688 4.796875 C 11.554688 4.480469 10.765625 4.074219 9.914062 3.578125 C 8.6875 2.964844 7.28125 2.339844 5.699219 1.703125 C 2.550781 0.710938 2.121094 0.800781 0.355469 0.910156 " clip-rule="nonzero"/></clipPath><clipPath id="9e4457dc1f"><rect x="0" width="19" y="0" height="27"/></clipPath><clipPath id="f6ac9f0d44"><path d="M 307.121094 6.015625 L 348.570312 6.015625 L 348.570312 77 L 307.121094 77 Z M 307.121094 6.015625 " clip-rule="nonzero"/></clipPath><clipPath id="c496a5e241"><path d="M 348.515625 56.167969 C 348.164062 52.632812 347.296875 49.628906 345.917969 47.148438 C 344.535156 44.664062 342.835938 42.570312 340.828125 40.835938 C 338.816406 39.101562 336.621094 37.65625 334.246094 36.488281 C 331.875 35.316406 329.527344 34.273438 327.1875 33.355469 C 325.34375 32.648438 323.578125 31.910156 321.886719 31.128906 C 320.195312 30.34375 318.664062 29.445312 317.328125 28.417969 C 315.988281 27.390625 314.886719 26.1875 314.039062 24.808594 C 313.1875 23.429688 312.691406 21.789062 312.546875 19.878906 C 312.40625 17.613281 312.675781 15.671875 313.347656 14.046875 C 314.019531 12.421875 318.035156 7.03125 318.699219 6.289062 C 317.21875 6.988281 314.675781 8.484375 313.507812 9.539062 C 310.394531 12.332031 308.449219 16.589844 307.667969 22.316406 C 307.523438 23.101562 307.441406 23.875 307.398438 24.648438 C 307.355469 25.421875 307.347656 26.128906 307.347656 26.769531 C 307.347656 30.875 308.039062 34.339844 309.417969 37.167969 C 310.796875 39.996094 312.582031 42.417969 314.777344 44.4375 C 316.972656 46.457031 319.355469 48.132812 321.9375 49.476562 C 324.519531 50.824219 327.042969 52.058594 329.527344 53.1875 C 332.429688 54.535156 334.953125 55.839844 337.117188 57.117188 C 339.277344 58.394531 340.632812 60.054688 341.207031 62.105469 C 341.703125 64.015625 341.667969 65.765625 341.363281 67.40625 C 340.566406 71.730469 334.886719 76.46875 334.691406 76.855469 C 335.863281 76.882812 336.484375 76.484375 337.015625 76.265625 C 339.453125 75.242188 341.542969 73.777344 343.273438 71.867188 C 345.007812 69.957031 346.355469 67.675781 347.304688 65.027344 C 348.253906 62.375 348.667969 59.421875 348.523438 56.167969 " clip-rule="nonzero"/></clipPath><clipPath id="0c4b9386c9"><path d="M 0.238281 0.238281 L 41.570312 0.238281 L 41.570312 71 L 0.238281 71 Z M 0.238281 0.238281 " clip-rule="nonzero"/></clipPath><clipPath id="89f0d3cd3a"><path d="M 41.515625 50.167969 C 41.164062 46.632812 40.296875 43.628906 38.917969 41.148438 C 37.535156 38.664062 35.835938 36.570312 33.828125 34.835938 C 31.816406 33.101562 29.621094 31.65625 27.246094 30.488281 C 24.875 29.316406 22.527344 28.273438 20.1875 27.355469 C 18.34375 26.648438 16.578125 25.910156 14.886719 25.128906 C 13.195312 24.34375 11.664062 23.445312 10.328125 22.417969 C 8.988281 21.390625 7.886719 20.1875 7.039062 18.808594 C 6.1875 17.429688 5.691406 15.789062 5.546875 13.878906 C 5.40625 11.613281 5.675781 9.671875 6.347656 8.046875 C 7.019531 6.421875 11.035156 1.03125 11.699219 0.289062 C 10.21875 0.988281 7.675781 2.484375 6.507812 3.539062 C 3.394531 6.332031 1.449219 10.589844 0.667969 16.316406 C 0.523438 17.101562 0.441406 17.875 0.398438 18.648438 C 0.355469 19.421875 0.347656 20.128906 0.347656 20.769531 C 0.347656 24.875 1.039062 28.339844 2.417969 31.167969 C 3.796875 33.996094 5.582031 36.417969 7.777344 38.4375 C 9.972656 40.457031 12.355469 42.132812 14.9375 43.476562 C 17.519531 44.824219 20.042969 46.058594 22.527344 47.1875 C 25.429688 48.535156 27.953125 49.839844 30.117188 51.117188 C 32.277344 52.394531 33.632812 54.054688 34.207031 56.105469 C 34.703125 58.015625 34.667969 59.765625 34.363281 61.40625 C 33.566406 65.730469 27.886719 70.46875 27.691406 70.855469 C 28.863281 70.882812 29.484375 70.484375 30.015625 70.265625 C 32.453125 69.242188 34.542969 67.777344 36.273438 65.867188 C 38.007812 63.957031 39.355469 61.675781 40.304688 59.027344 C 41.253906 56.375 41.667969 53.421875 41.523438 50.167969 " clip-rule="nonzero"/></clipPath><clipPath id="1e7040f8a7"><rect x="0" width="42" y="0" height="71"/></clipPath><clipPath id="75d94df33b"><rect x="0" width="353" y="0" height="111"/></clipPath></defs><g transform="matrix(1, 0, 0, 1, 11, 132)"><g clip-path="url(#75d94df33b)"><g clip-path="url(#addc1d6400)"><g transform="matrix(1, 0, 0, 1, 86, 91)"><g clip-path="url(#bc51e4319b)"><g clip-path="url(#64bf394c93)"><path fill="#92681a" d="M 0.882812 0.9375 L 13.542969 0.9375 L 13.542969 19.578125 L 0.882812 19.578125 Z M 0.882812 0.9375 " fill-opacity="1" fill-rule="nonzero"/></g></g></g></g><g clip-path="url(#ee543b0f3d)"><g clip-path="url(#297acc20f9)"><g transform="matrix(1, 0, 0, 1, 113, 91)"><g clip-path="url(#c12a810712)"><g clip-path="url(#8c364a6869)"><g clip-path="url(#670e37e030)"><path fill="#92681a" d="M 0.121094 0.808594 L 14.484375 0.808594 L 14.484375 19.773438 L 0.121094 19.773438 Z M 0.121094 0.808594 " fill-opacity="1" fill-rule="nonzero"/></g></g></g></g></g></g><g clip-path="url(#072e03f641)"><g transform="matrix(1, 0, 0, 1, 140, 91)"><g clip-path="url(#208fb263c0)"><g clip-path="url(#4a25cca689)"><path fill="#92681a" d="M 0.617188 0.9375 L 15.847656 0.9375 L 15.847656 19.5625 L 0.617188 19.5625 Z M 0.617188 0.9375 " fill-opacity="1" fill-rule="nonzero"/></g></g></g></g><g clip-path="url(#5bb8fa9536)"><g clip-path="url(#ff007dfbea)"><g transform="matrix(1, 0, 0, 1, 170, 91)"><g clip-path="url(#f6ffdedace)"><g clip-path="url(#a706a19a5f)"><g clip-path="url(#ca2bca987e)"><path fill="#92681a" d="M 0.0820312 0.9375 L 15.972656 0.9375 L 15.972656 19.746094 L 0.0820312 19.746094 Z M 0.0820312 0.9375 " fill-opacity="1" fill-rule="nonzero"/></g></g></g></g></g></g><g clip-path="url(#82650ff7e3)"><g clip-path="url(#17e71be1a6)"><g transform="matrix(1, 0, 0, 1, 201, 91)"><g clip-path="url(#70cd242ee7)"><g clip-path="url(#1f667a19ef)"><g clip-path="url(#97ed6286d8)"><path fill="#92681a" d="M 0.992188 0.9375 L 16.460938 0.9375 L 16.460938 19.609375 L 0.992188 19.609375 Z M 0.992188 0.9375 " fill-opacity="1" fill-rule="nonzero"/></g></g></g></g></g></g><g clip-path="url(#5cf25238cb)"><g transform="matrix(1, 0, 0, 1, 232, 91)"><g clip-path="url(#7e772a42bc)"><g clip-path="url(#a83401adb5)"><path fill="#92681a" d="M 0.617188 0.9375 L 2.980469 0.9375 L 2.980469 19.585938 L 0.617188 19.585938 Z M 0.617188 0.9375 " fill-opacity="1" fill-rule="nonzero"/></g></g></g></g><g clip-path="url(#4c5e5e2a57)"><g clip-path="url(#ceff000fb8)"><g transform="matrix(1, 0, 0, 1, 250, 91)"><g clip-path="url(#2eb10b1c0d)"><g clip-path="url(#5577854ff4)"><g clip-path="url(#2fe101e676)"><path fill="#92681a" d="M 0.0546875 0.808594 L 17.625 0.808594 L 17.625 19.75 L 0.0546875 19.75 Z M 0.0546875 0.808594 " fill-opacity="1" fill-rule="nonzero"/></g></g></g></g></g></g><g clip-path="url(#b88af92466)"><g clip-path="url(#fb4214c586)"><g transform="matrix(1, 0, 0, 1, 27, 26)"><g clip-path="url(#c5eb0652c3)"><g clip-path="url(#099a8f7182)"><g clip-path="url(#5295975da4)"><rect x="-174.5" width="648" fill="#005461" y="-294.499997" height="647.999984" fill-opacity="1"/></g></g></g></g></g></g><g clip-path="url(#edfb389f2d)"><g clip-path="url(#a82d5e1b27)"><g transform="matrix(1, 0, 0, 1, 269, 26)"><g clip-path="url(#900b498251)"><g clip-path="url(#595bfc050b)"><g clip-path="url(#74f3826195)"><rect x="-416.5" width="648" fill="#005461" y="-294.499997" height="647.999984" fill-opacity="1"/></g></g></g></g></g></g><g clip-path="url(#8717e8d517)"><g clip-path="url(#00bae54b13)"><g transform="matrix(1, 0, 0, 1, 4, 5)"><g clip-path="url(#89133e64c6)"><g clip-path="url(#76e1c73dc7)"><g clip-path="url(#6f7b907f9d)"><rect x="-151.5" width="648" fill="#005461" y="-273.499997" height="647.999984" fill-opacity="1"/></g></g></g></g></g></g><g clip-path="url(#b50b1b6f24)"><g clip-path="url(#c7b96427a7)"><g transform="matrix(1, 0, 0, 1, 35, 5)"><g clip-path="url(#c185456b8b)"><g clip-path="url(#64fb7aad2e)"><g clip-path="url(#f98c1b1d38)"><rect x="-182.5" width="648" fill="#005461" y="-273.499997" height="647.999984" fill-opacity="1"/></g></g></g></g></g></g><g clip-path="url(#ebfde0fe9e)"><g clip-path="url(#416f5cda5c)"><g transform="matrix(1, 0, 0, 1, 59, 4)"><g clip-path="url(#ae4f999e7d)"><g clip-path="url(#d279d507c8)"><g clip-path="url(#cfd8d84ec4)"><rect x="-206.5" width="648" fill="#005461" y="-272.499997" height="647.999984" fill-opacity="1"/></g></g></g></g></g></g><g clip-path="url(#70b1981403)"><g clip-path="url(#bcc5a33aac)"><g transform="matrix(1, 0, 0, 1, 90, 4)"><g clip-path="url(#07067b71d8)"><g clip-path="url(#70edea6a4f)"><g clip-path="url(#6084d4c6c8)"><rect x="-237.5" width="648" fill="#005461" y="-272.499997" height="647.999984" fill-opacity="1"/></g></g></g></g></g></g><g clip-path="url(#fd715bb661)"><g clip-path="url(#c8bf6b307f)"><g transform="matrix(1, 0, 0, 1, 120, 5)"><g clip-path="url(#94a3e0199b)"><g clip-path="url(#2053f96f2c)"><g clip-path="url(#f680e951b3)"><rect x="-267.5" width="648" fill="#005461" y="-273.499997" height="647.999984" fill-opacity="1"/></g></g></g></g></g></g><g clip-path="url(#d87c2124a4)"><g clip-path="url(#14ecc187a4)"><g transform="matrix(1, 0, 0, 1, 163, 5)"><g clip-path="url(#378733217d)"><g clip-path="url(#e5d7e8a766)"><g clip-path="url(#ef89bd1770)"><rect x="-310.5" width="648" fill="#005461" y="-273.499997" height="647.999984" fill-opacity="1"/></g></g></g></g></g></g><g clip-path="url(#7c27f90095)"><g clip-path="url(#209edad08f)"><g transform="matrix(1, 0, 0, 1, 229, 51)"><g clip-path="url(#90d1012e93)"><g clip-path="url(#a8c53e3583)"><g clip-path="url(#f9db0b2012)"><rect x="-376.5" width="648" fill="#005461" y="-319.499997" height="647.999984" fill-opacity="1"/></g></g></g></g></g></g><g clip-path="url(#3fe4d74083)"><g clip-path="url(#8fea6c479a)"><g transform="matrix(1, 0, 0, 1, 189, 5)"><g clip-path="url(#46046ceb8f)"><g clip-path="url(#2bfc9ee29d)"><g clip-path="url(#b9bc1f0295)"><rect x="-336.5" width="648" fill="#005461" y="-273.499997" height="647.999984" fill-opacity="1"/></g></g></g></g></g></g><g clip-path="url(#e8f08632eb)"><g clip-path="url(#7ef5bee82c)"><g transform="matrix(1, 0, 0, 1, 225, 7)"><g clip-path="url(#0f25fec16e)"><g clip-path="url(#1f6e8b3d31)"><g clip-path="url(#c69aef1d21)"><rect x="-372.5" width="648" fill="#005461" y="-275.499997" height="647.999984" fill-opacity="1"/></g></g></g></g></g></g><g clip-path="url(#f94114f404)"><g clip-path="url(#67a1602b4f)"><g transform="matrix(1, 0, 0, 1, 246, 5)"><g clip-path="url(#423bdbdab1)"><g clip-path="url(#11d20aaa98)"><g clip-path="url(#584cba8e68)"><rect x="-393.5" width="648" fill="#005461" y="-273.499997" height="647.999984" fill-opacity="1"/></g></g></g></g></g></g><g clip-path="url(#73d1ea343b)"><g clip-path="url(#2f561228ed)"><g transform="matrix(1, 0, 0, 1, 280, 55)"><g clip-path="url(#42f2231a40)"><g clip-path="url(#4d310f2e8d)"><g clip-path="url(#6b4f0632c3)"><rect x="-427.5" width="648" fill="#005461" y="-323.499997" height="647.999984" fill-opacity="1"/></g></g></g></g></g></g><g clip-path="url(#2e4106c859)"><g clip-path="url(#0652208563)"><g transform="matrix(1, 0, 0, 1, 280, 5)"><g clip-path="url(#c08c1c07be)"><g clip-path="url(#c3bbeb3487)"><g clip-path="url(#a9e2c573de)"><rect x="-427.5" width="648" fill="#005461" y="-273.499997" height="647.999984" fill-opacity="1"/></g></g></g></g></g></g><g clip-path="url(#89f1ab97ef)"><g clip-path="url(#1a93c01446)"><g transform="matrix(1, 0, 0, 1, 307, 51)"><g clip-path="url(#e84d6d0d9e)"><g clip-path="url(#13d4175433)"><g clip-path="url(#fed5c6429d)"><rect x="-454.5" width="648" fill="#005461" y="-319.499997" height="647.999984" fill-opacity="1"/></g></g></g></g></g></g><g clip-path="url(#9d04a9b876)"><g clip-path="url(#0e90135e97)"><g transform="matrix(1, 0, 0, 1, 327, 5)"><g clip-path="url(#9e4457dc1f)"><g clip-path="url(#f56b8cff5c)"><g clip-path="url(#05c8a90d57)"><rect x="-474.5" width="648" fill="#005461" y="-273.499997" height="647.999984" fill-opacity="1"/></g></g></g></g></g></g><g clip-path="url(#f6ac9f0d44)"><g clip-path="url(#c496a5e241)"><g transform="matrix(1, 0, 0, 1, 307, 6)"><g clip-path="url(#1e7040f8a7)"><g clip-path="url(#0c4b9386c9)"><g clip-path="url(#89f0d3cd3a)"><rect x="-454.5" width="648" fill="#005461" y="-274.499997" height="647.999984" fill-opacity="1"/></g></g></g></g></g></g></g></g></svg>