<?xml version="1.0" standalone="no"?>
<!DOCTYPE svg PUBLIC "-//W3C//DTD SVG 20010904//EN"
 "http://www.w3.org/TR/2001/REC-SVG-20010904/DTD/svg10.dtd">
<svg version="1.0" xmlns="http://www.w3.org/2000/svg"
 width="594.000000pt" height="420.000000pt" viewBox="0 0 594.000000 420.000000"
 preserveAspectRatio="xMidYMid meet">

<g transform="translate(0.000000,420.000000) scale(0.100000,-0.100000)"
fill="#000000" stroke="none">
<path d="M1589 2895 c82 -89 119 -201 141 -430 19 -193 -7 -461 -54 -569 -14
-31 -48 -80 -76 -110 l-51 -54 41 9 c58 13 136 65 198 133 157 173 206 470
117 718 -61 170 -196 310 -329 342 l-30 7 43 -46z"/>
<path d="M3555 2931 c-160 -39 -290 -193 -346 -406 -27 -105 -29 -300 -4 -395
50 -190 139 -307 282 -372 66 -31 211 -32 263 -3 l35 19 -64 8 c-78 11 -150
40 -184 76 -36 38 -74 117 -94 198 -25 100 -25 426 0 541 41 192 101 277 216
309 55 16 61 19 40 25 -32 9 -106 9 -144 0z"/>
<path d="M1350 2908 c-25 -12 -77 -53 -115 -92 -208 -210 -251 -529 -110 -814
55 -110 138 -200 218 -238 85 -39 99 -32 45 24 -107 110 -145 276 -135 597 8
267 43 392 136 498 49 54 37 61 -39 25z"/>
<path d="M120 2905 c0 -11 12 -15 45 -15 l45 0 0 -555 0 -555 -45 0 c-33 0
-45 -4 -45 -15 0 -13 28 -15 195 -15 167 0 195 2 195 15 0 11 -12 15 -50 15
l-50 0 0 570 0 570 -145 0 c-122 0 -145 -2 -145 -15z"/>
<path d="M654 2905 c11 -8 34 -15 50 -15 44 -1 107 -32 139 -69 30 -36 57
-117 57 -172 0 -43 8 -69 21 -69 5 0 9 77 9 170 l0 170 -147 0 c-132 -1 -146
-2 -129 -15z"/>
<path d="M2050 2905 c0 -12 13 -15 55 -15 l55 0 0 -459 c0 -531 0 -533 80
-604 103 -91 313 -128 485 -85 51 12 128 61 150 94 15 23 8 21 -72 -21 -49
-25 -109 -48 -135 -51 -149 -20 -249 56 -277 210 -7 37 -11 223 -11 488 l0
428 55 0 c42 0 55 3 55 15 0 13 -31 15 -220 15 -189 0 -220 -2 -220 -15z"/>
<path d="M2760 2904 c0 -13 7 -15 35 -11 19 3 50 1 68 -4 37 -10 46 -31 62
-142 4 -26 9 -46 11 -45 1 2 8 35 14 73 16 101 28 115 95 115 42 0 55 3 55 15
0 13 -26 15 -170 15 -151 0 -170 -2 -170 -16z"/>
<path d="M4130 2905 c0 -11 12 -15 45 -15 l45 0 0 -555 0 -555 -45 0 c-33 0
-45 -4 -45 -15 0 -13 23 -15 150 -15 l150 0 0 585 0 585 -150 0 c-127 0 -150
-2 -150 -15z"/>
<path d="M4711 2916 c2 -2 40 -18 84 -35 44 -18 95 -46 113 -64 36 -35 72
-133 72 -198 0 -28 4 -39 15 -39 13 0 15 26 15 170 l0 170 -152 0 c-83 0 -149
-2 -147 -4z"/>
<path d="M5490 2916 c0 -3 25 -22 56 -42 116 -77 165 -152 185 -287 14 -91 16
-97 29 -97 6 0 10 74 10 216 0 164 -3 215 -12 212 -7 -3 -16 -19 -20 -36 -11
-41 -39 -42 -122 -3 -59 28 -126 48 -126 37z"/>
<path d="M5267 2873 c-127 -95 -162 -332 -74 -496 45 -85 103 -130 298 -232
194 -101 219 -124 219 -201 0 -57 -14 -90 -62 -147 -22 -27 -38 -50 -36 -52 2
-2 27 9 56 26 95 54 151 157 151 280 1 85 -18 153 -60 214 -56 82 -110 119
-283 194 -151 66 -198 98 -226 156 -35 72 -26 148 28 225 22 33 38 60 33 60
-4 0 -24 -12 -44 -27z"/>
<path d="M3826 2848 c84 -91 124 -178 124 -270 0 -31 4 -38 20 -38 19 0 20 7
20 175 0 187 -3 196 -46 150 -26 -29 -49 -27 -119 8 l-40 20 41 -45z"/>
<path d="M707 2522 c-2 -32 -12 -73 -21 -89 -18 -36 -87 -73 -135 -73 -42 0
-32 -16 16 -24 85 -14 130 -66 140 -162 4 -36 10 -54 19 -54 11 0 14 43 14
230 0 187 -3 230 -14 230 -9 0 -15 -18 -19 -58z"/>
<path d="M4707 2525 c-10 -95 -57 -152 -135 -162 -52 -7 -54 -19 -4 -28 83
-15 127 -69 139 -166 4 -30 10 -48 17 -46 11 4 19 417 9 444 -11 27 -20 11
-26 -42z"/>
<path d="M3965 2158 c-2 -7 -13 -47 -23 -88 -11 -41 -33 -112 -50 -157 -17
-46 -29 -83 -27 -83 2 0 16 5 31 12 23 11 28 10 45 -11 11 -13 19 -36 19 -52
0 -19 5 -29 15 -29 13 0 15 30 15 210 0 138 -4 210 -10 210 -6 0 -13 -6 -15
-12z"/>
<path d="M5157 2164 c-4 -4 -7 -101 -7 -216 0 -163 3 -208 13 -208 7 0 17 15
22 32 6 19 18 34 28 36 10 2 56 -13 102 -33 102 -43 140 -44 75 -1 -122 81
-177 164 -201 306 -12 76 -20 96 -32 84z"/>
<path d="M4980 2047 c0 -128 -58 -208 -190 -262 l-85 -34 153 -1 152 0 0 170
c0 144 -2 170 -15 170 -11 0 -15 -11 -15 -43z"/>
<path d="M1510 1315 l0 -155 100 0 c82 0 100 3 100 15 0 12 -15 15 -67 16 -38
1 -75 2 -83 3 -11 1 -15 14 -15 56 l0 54 69 1 c45 0 71 4 73 12 3 9 -17 13
-69 15 l-73 3 0 50 0 50 83 3 c64 2 82 6 82 17 0 12 -19 15 -100 15 l-100 0 0
-155z"/>
<path d="M2014 1460 c-28 -11 -54 -48 -54 -75 0 -38 27 -59 107 -85 65 -21 79
-29 81 -48 2 -13 -2 -30 -8 -38 -16 -19 -91 -18 -137 1 -25 11 -40 12 -47 5
-25 -25 86 -63 154 -53 51 8 80 38 80 85 0 44 -19 61 -95 79 -64 15 -95 34
-95 59 0 44 77 64 134 35 35 -18 33 -18 40 0 12 34 -102 59 -160 35z"/>
<path d="M2410 1456 c0 -11 15 -16 53 -18 l52 -3 3 -137 c2 -112 5 -138 17
-138 12 0 15 26 17 138 l3 137 53 3 c37 2 52 7 52 18 0 11 -23 14 -125 14
-102 0 -125 -3 -125 -14z"/>
<path d="M2910 1365 c0 -111 9 -143 50 -180 31 -28 129 -28 160 0 41 37 50 69
50 180 0 82 -3 105 -14 105 -10 0 -14 -25 -18 -105 -4 -85 -9 -111 -25 -133
-23 -31 -56 -42 -98 -30 -53 14 -65 40 -65 137 0 99 -7 131 -26 131 -11 0 -14
-22 -14 -105z"/>
<path d="M3442 1318 l3 -153 50 -3 c87 -6 132 6 170 44 34 33 35 38 35 108 0
60 -4 78 -22 101 -31 39 -77 55 -163 55 l-76 0 3 -152z m179 101 c46 -24 64
-116 32 -170 -21 -35 -62 -53 -122 -53 l-46 -1 -3 109 c-1 61 0 116 3 124 4
12 17 13 61 8 31 -3 65 -11 75 -17z"/>
<path d="M3960 1315 c0 -144 1 -156 18 -153 15 3 17 18 17 153 0 135 -2 150
-17 153 -17 3 -18 -9 -18 -153z"/>
<path d="M4323 1450 c-79 -48 -93 -172 -26 -242 58 -61 150 -55 205 13 40 49
46 103 20 162 -36 81 -127 111 -199 67z m111 -20 c71 -27 87 -148 27 -202 -68
-60 -160 -18 -168 78 -8 95 60 155 141 124z"/>
</g>
</svg>
